<svg width="163" height="48" viewBox="0 0 163 48" fill="none" xmlns="http://www.w3.org/2000/svg">
<path fill-rule="evenodd" clip-rule="evenodd" d="M23.999 16.993L11.0046 3.52038C10.3336 2.82474 9.08472 2.99179 8.21501 3.89344C7.34531 4.79509 7.18423 6.08999 7.85519 6.78564L20.8503 20.259L20.8451 20.2643L22.8419 22.3345C23.4614 22.9769 24.4589 22.9886 25.0922 22.3697C25.1163 22.351 25.1398 22.3315 25.1628 22.3111C25.3198 22.204 25.471 22.077 25.6121 21.9307C25.7482 21.7896 25.867 21.6388 25.9679 21.4823L40.2064 6.71975C40.8774 6.0241 40.7163 4.7292 39.8466 3.82755C38.9769 2.9259 37.728 2.7589 37.0571 3.45455L23.999 16.993ZM25.9976 19.0658C25.9892 19.0566 25.9806 19.0475 25.9719 19.0385L23.999 16.993L22.0897 18.9726C22.0776 18.9851 22.0657 18.9979 22.0541 19.0108L23.9993 16.9941L25.9976 19.0658ZM26.0031 21.4263C25.9916 21.4451 25.9799 21.4637 25.9679 21.4823L25.2391 22.2379C25.2144 22.2634 25.189 22.2879 25.1628 22.3111C25.1504 22.3195 25.1381 22.3278 25.1257 22.336C25.1261 22.3355 25.1266 22.335 25.1271 22.3345L26.0031 21.4263Z" fill="white"/>
<path opacity="0.29" fill-rule="evenodd" clip-rule="evenodd" d="M37.0569 3.45453L24.1345 16.8689C24.1131 16.9779 25.4404 17.7826 27.1421 17.5579C29.0938 17.3 30.4555 16.7978 31.1265 16.1021L40.2063 6.71978C40.8772 6.02414 40.7162 4.72924 39.8465 3.82759C38.9768 2.92593 37.7279 2.75888 37.0569 3.45453Z" fill="black"/>
<path d="M24.0348 10.6638C26.875 10.6638 29.1775 8.27662 29.1775 5.33189C29.1775 2.38717 26.875 0 24.0348 0C21.1945 0 18.8921 2.38717 18.8921 5.33189C18.8921 8.27662 21.1945 10.6638 24.0348 10.6638Z" fill="white"/>
<path fill-rule="evenodd" clip-rule="evenodd" d="M31.614 23.9702L44.6085 10.4976C45.2794 9.80198 45.1183 8.50714 44.2486 7.60543C43.379 6.70373 42.13 6.53673 41.4591 7.23238L28.4586 20.7111L28.4573 20.7098L26.4606 22.78C25.8295 23.4342 25.8295 24.495 26.4606 25.1492L26.4707 25.1597C26.4753 25.1654 26.4799 25.1711 26.4846 25.1768C26.5879 25.3396 26.7103 25.4963 26.8515 25.6426C26.9876 25.7837 27.133 25.9069 27.284 26.0115L41.5226 40.7739C42.1936 41.4696 43.4425 41.3026 44.3122 40.4009C45.1818 39.4991 45.343 38.2043 44.672 37.5087H44.672L31.614 23.9702ZM31.608 23.9764L31.614 23.9702L29.7046 21.9906C29.6688 21.9534 29.6313 21.9187 29.5923 21.8864L31.608 23.9764ZM27.3083 26.0282C27.3002 26.0227 27.2921 26.0171 27.284 26.0115L26.5552 25.2559C26.5305 25.2303 26.507 25.2039 26.4846 25.1768C26.4829 25.1742 26.4813 25.1716 26.4796 25.169L27.3083 26.0282Z" fill="white"/>
<path opacity="0.29" fill-rule="evenodd" clip-rule="evenodd" d="M44.6682 37.5061L31.7299 24.1083C31.6248 24.086 30.8486 25.4622 31.0654 27.2265C31.3141 29.25 31.7985 30.6618 32.4695 31.3576L41.5188 40.7714C42.1898 41.467 43.4387 41.3 44.3084 40.3983C45.178 39.4966 45.3392 38.2018 44.6682 37.5061Z" fill="black"/>
<path fill-rule="evenodd" clip-rule="evenodd" d="M42.8567 18.6718C43.8739 18.6718 44.8684 18.9845 45.7142 19.5705C46.56 20.1564 47.2192 20.9892 47.6085 21.9636C47.9978 22.938 48.0996 24.0102 47.9012 25.0446C47.7027 26.079 47.2129 27.0292 46.4936 27.775C45.7743 28.5208 44.8578 29.0286 43.8601 29.2344C42.8624 29.4402 41.8283 29.3345 40.8884 28.9309C39.9486 28.5273 39.1453 27.8438 38.5802 26.9669C38.015 26.09 37.7134 25.059 37.7134 24.0043C37.7134 22.59 38.2553 21.2337 39.2198 20.2336C40.1844 19.2336 41.4926 18.6718 42.8567 18.6718Z" fill="white"/>
<path fill-rule="evenodd" clip-rule="evenodd" d="M25.3286 25.6529C24.6976 24.9987 23.6745 24.9987 23.0435 25.6529L23.0331 25.6637C23.0228 25.6723 23.0126 25.6811 23.0025 25.6901C22.8455 25.7971 22.6944 25.9241 22.5533 26.0704C22.4172 26.2115 22.2984 26.3623 22.1975 26.5188L7.95895 41.2813C7.28799 41.977 7.44907 43.2718 8.31877 44.1735C9.18848 45.0752 10.4374 45.2422 11.1083 44.5465V44.5465L24.1663 31.0081L37.1608 44.4806C37.8318 45.1763 39.0807 45.0093 39.9504 44.1076C40.8201 43.2059 40.9812 41.911 40.3102 41.2154L27.3111 27.738L27.3254 27.7231L25.3286 25.6529ZM26.1652 28.926C26.1372 28.9615 26.1074 28.9956 26.0757 29.0285L24.1663 31.0081L22.1935 28.9626C22.1481 28.9156 22.1066 28.8658 22.0688 28.8136L24.1712 30.9934L26.1652 28.926ZM22.1766 26.5517C22.1835 26.5407 22.1904 26.5298 22.1975 26.5188L22.9263 25.7632C22.9509 25.7377 22.9763 25.7133 23.0025 25.6901C23.0074 25.6867 23.0124 25.6833 23.0174 25.68L22.1766 26.5517Z" fill="white"/>
<path opacity="0.29" fill-rule="evenodd" clip-rule="evenodd" d="M11.1083 44.5465L24.0307 31.1322C24.0522 31.0232 22.7248 30.2185 21.0232 30.4432C19.0714 30.7011 17.7098 31.2033 17.0387 31.8989L7.95895 41.2813C7.28799 41.977 7.44907 43.2718 8.31877 44.1735C9.18848 45.0752 10.4374 45.2422 11.1083 44.5465Z" fill="black"/>
<path fill-rule="evenodd" clip-rule="evenodd" d="M24.1331 37.3348C25.1503 37.3348 26.1447 37.6476 26.9905 38.2335C27.8363 38.8195 28.4956 39.6523 28.8849 40.6267C29.2742 41.6011 29.376 42.6733 29.1776 43.7077C28.9791 44.7421 28.4892 45.6923 27.7699 46.4381C27.0506 47.1838 26.1342 47.6917 25.1365 47.8975C24.1388 48.1032 23.1046 47.9976 22.1648 47.594C21.225 47.1904 20.4217 46.5069 19.8566 45.63C19.2914 44.7531 18.9897 43.7221 18.9897 42.6674C18.9897 41.2531 19.5316 39.8968 20.4962 38.8967C21.4607 37.8967 22.769 37.3348 24.1331 37.3348Z" fill="white"/>
<path fill-rule="evenodd" clip-rule="evenodd" d="M16.3869 24.0333L3.39365 37.5046C2.72269 38.2003 2.88371 39.4951 3.75342 40.3968C4.62313 41.2985 5.87207 41.4655 6.54303 40.7699L19.5363 27.2986L19.5382 27.3006L21.535 25.2304C22.1476 24.5952 22.1655 23.5769 21.5886 22.9194C21.5663 22.8871 21.5426 22.8558 21.5174 22.8254C21.4142 22.6626 21.2917 22.5059 21.1506 22.3596C21.0145 22.2185 20.8691 22.0954 20.718 21.9907L6.47943 7.22835C5.80847 6.5327 4.55958 6.6997 3.68987 7.60141C2.82016 8.50311 2.65909 9.79796 3.33005 10.4936H3.33015L16.3853 24.0291L16.384 24.0304L16.3869 24.0333ZM20.6538 21.9476C20.6753 21.9616 20.6967 21.976 20.718 21.9907L21.4469 22.7464C21.4715 22.7719 21.495 22.7983 21.5174 22.8254C21.5279 22.8419 21.5381 22.8584 21.5482 22.875C21.5438 22.8704 21.5394 22.8657 21.535 22.8612L20.6538 21.9476Z" fill="white"/>
<path opacity="0.29" fill-rule="evenodd" clip-rule="evenodd" d="M3.33005 10.4936L16.2683 23.8914C16.3735 23.9137 17.1497 22.5375 16.9329 20.7733C16.6842 18.7497 16.1998 17.3379 15.5289 16.6422L6.47943 7.22835C5.80847 6.5327 4.55958 6.6997 3.68987 7.60141C2.82016 8.50311 2.65909 9.79796 3.33005 10.4936Z" fill="black"/>
<path d="M5.14263 29.3269C7.98282 29.3269 10.2853 26.9397 10.2853 23.995C10.2853 21.0504 7.98282 18.6632 5.14263 18.6632C2.30243 18.6632 0 21.0504 0 23.995C0 26.9397 2.30243 29.3269 5.14263 29.3269Z" fill="white"/>
<path d="M54.66 23.96C54.66 22.5733 54.96 21.34 55.56 20.26C56.16 19.1667 56.9933 18.32 58.06 17.72C59.14 17.1067 60.36 16.8 61.72 16.8C63.3867 16.8 64.8133 17.24 66 18.12C67.1867 19 67.98 20.2 68.38 21.72H64.62C64.34 21.1333 63.94 20.6867 63.42 20.38C62.9133 20.0733 62.3333 19.92 61.68 19.92C60.6267 19.92 59.7733 20.2867 59.12 21.02C58.4667 21.7533 58.14 22.7333 58.14 23.96C58.14 25.1867 58.4667 26.1667 59.12 26.9C59.7733 27.6333 60.6267 28 61.68 28C62.3333 28 62.9133 27.8467 63.42 27.54C63.94 27.2333 64.34 26.7867 64.62 26.2H68.38C67.98 27.72 67.1867 28.92 66 29.8C64.8133 30.6667 63.3867 31.1 61.72 31.1C60.36 31.1 59.14 30.8 58.06 30.2C56.9933 29.5867 56.16 28.74 55.56 27.66C54.96 26.58 54.66 25.3467 54.66 23.96ZM75.5544 31.16C74.461 31.16 73.4744 30.9267 72.5944 30.46C71.7277 29.9933 71.041 29.3267 70.5344 28.46C70.041 27.5933 69.7944 26.58 69.7944 25.42C69.7944 24.2733 70.0477 23.2667 70.5544 22.4C71.061 21.52 71.7544 20.8467 72.6344 20.38C73.5144 19.9133 74.501 19.68 75.5944 19.68C76.6877 19.68 77.6744 19.9133 78.5544 20.38C79.4344 20.8467 80.1277 21.52 80.6344 22.4C81.141 23.2667 81.3944 24.2733 81.3944 25.42C81.3944 26.5667 81.1344 27.58 80.6144 28.46C80.1077 29.3267 79.4077 29.9933 78.5144 30.46C77.6344 30.9267 76.6477 31.16 75.5544 31.16ZM75.5544 28.2C76.2077 28.2 76.761 27.96 77.2144 27.48C77.681 27 77.9144 26.3133 77.9144 25.42C77.9144 24.5267 77.6877 23.84 77.2344 23.36C76.7944 22.88 76.2477 22.64 75.5944 22.64C74.9277 22.64 74.3744 22.88 73.9344 23.36C73.4944 23.8267 73.2744 24.5133 73.2744 25.42C73.2744 26.3133 73.4877 27 73.9144 27.48C74.3544 27.96 74.901 28.2 75.5544 28.2ZM97.4488 19.72C98.8354 19.72 99.9354 20.14 100.749 20.98C101.575 21.82 101.989 22.9867 101.989 24.48V31H98.5888V24.94C98.5888 24.22 98.3954 23.6667 98.0088 23.28C97.6354 22.88 97.1154 22.68 96.4488 22.68C95.7821 22.68 95.2554 22.88 94.8688 23.28C94.4954 23.6667 94.3088 24.22 94.3088 24.94V31H90.9088V24.94C90.9088 24.22 90.7154 23.6667 90.3288 23.28C89.9554 22.88 89.4354 22.68 88.7688 22.68C88.1021 22.68 87.5754 22.88 87.1888 23.28C86.8154 23.6667 86.6288 24.22 86.6288 24.94V31H83.2088V19.84H86.6288V21.24C86.9754 20.7733 87.4288 20.4067 87.9888 20.14C88.5488 19.86 89.1821 19.72 89.8888 19.72C90.7288 19.72 91.4754 19.9 92.1288 20.26C92.7954 20.62 93.3154 21.1333 93.6888 21.8C94.0754 21.1867 94.6021 20.6867 95.2688 20.3C95.9354 19.9133 96.6621 19.72 97.4488 19.72ZM107.801 21.42C108.134 20.9 108.594 20.48 109.181 20.16C109.767 19.84 110.454 19.68 111.241 19.68C112.161 19.68 112.994 19.9133 113.741 20.38C114.487 20.8467 115.074 21.5133 115.501 22.38C115.941 23.2467 116.161 24.2533 116.161 25.4C116.161 26.5467 115.941 27.56 115.501 28.44C115.074 29.3067 114.487 29.98 113.741 30.46C112.994 30.9267 112.161 31.16 111.241 31.16C110.467 31.16 109.781 31 109.181 30.68C108.594 30.36 108.134 29.9467 107.801 29.44V36.32H104.381V19.84H107.801V21.42ZM112.681 25.4C112.681 24.5467 112.441 23.88 111.961 23.4C111.494 22.9067 110.914 22.66 110.221 22.66C109.541 22.66 108.961 22.9067 108.481 23.4C108.014 23.8933 107.781 24.5667 107.781 25.42C107.781 26.2733 108.014 26.9467 108.481 27.44C108.961 27.9333 109.541 28.18 110.221 28.18C110.901 28.18 111.481 27.9333 111.961 27.44C112.441 26.9333 112.681 26.2533 112.681 25.4ZM128.475 25.24C128.475 25.56 128.455 25.8933 128.415 26.24H120.675C120.728 26.9333 120.948 27.4667 121.335 27.84C121.735 28.2 122.222 28.38 122.795 28.38C123.648 28.38 124.242 28.02 124.575 27.3H128.215C128.028 28.0333 127.688 28.6933 127.195 29.28C126.715 29.8667 126.108 30.3267 125.375 30.66C124.642 30.9933 123.822 31.16 122.915 31.16C121.822 31.16 120.848 30.9267 119.995 30.46C119.142 29.9933 118.475 29.3267 117.995 28.46C117.515 27.5933 117.275 26.58 117.275 25.42C117.275 24.26 117.508 23.2467 117.975 22.38C118.455 21.5133 119.122 20.8467 119.975 20.38C120.828 19.9133 121.808 19.68 122.915 19.68C123.995 19.68 124.955 19.9067 125.795 20.36C126.635 20.8133 127.288 21.46 127.755 22.3C128.235 23.14 128.475 24.12 128.475 25.24ZM124.975 24.34C124.975 23.7533 124.775 23.2867 124.375 22.94C123.975 22.5933 123.475 22.42 122.875 22.42C122.302 22.42 121.815 22.5867 121.415 22.92C121.028 23.2533 120.788 23.7267 120.695 24.34H124.975ZM136.499 28.1V31H134.759C133.519 31 132.552 30.7 131.859 30.1C131.166 29.4867 130.819 28.4933 130.819 27.12V22.68H129.459V19.84H130.819V17.12H134.239V19.84H136.479V22.68H134.239V27.16C134.239 27.4933 134.319 27.7333 134.479 27.88C134.639 28.0267 134.906 28.1 135.279 28.1H136.499ZM140.124 18.68C139.524 18.68 139.031 18.5067 138.644 18.16C138.271 17.8 138.084 17.36 138.084 16.84C138.084 16.3067 138.271 15.8667 138.644 15.52C139.031 15.16 139.524 14.98 140.124 14.98C140.711 14.98 141.191 15.16 141.564 15.52C141.951 15.8667 142.144 16.3067 142.144 16.84C142.144 17.36 141.951 17.8 141.564 18.16C141.191 18.5067 140.711 18.68 140.124 18.68ZM141.824 19.84V31H138.404V19.84H141.824ZM149.903 22.68H148.062V31H144.643V22.68H143.403V19.84H144.643V19.52C144.643 18.1467 145.036 17.1067 145.823 16.4C146.609 15.68 147.763 15.32 149.283 15.32C149.536 15.32 149.723 15.3267 149.843 15.34V18.24C149.189 18.2 148.729 18.2933 148.463 18.52C148.196 18.7467 148.062 19.1533 148.062 19.74V19.84H149.903V22.68ZM162.91 19.84L155.91 36.3H152.23L154.79 30.62L150.25 19.84H154.07L156.65 26.82L159.21 19.84H162.91Z" fill="white"/>
</svg>
