<svg width="164" height="49" viewBox="0 0 164 49" fill="none" xmlns="http://www.w3.org/2000/svg">
<path fill-rule="evenodd" clip-rule="evenodd" d="M24.6755 17.457L11.6811 3.98437C11.0101 3.28873 9.76124 3.45578 8.89153 4.35743C8.02182 5.25908 7.86075 6.55398 8.53171 7.24963L21.5268 20.723L21.5217 20.7283L23.5184 22.7985C24.138 23.4409 25.1354 23.4526 25.7687 22.8336C25.7928 22.815 25.8163 22.7955 25.8393 22.7751C25.9963 22.668 26.1475 22.541 26.2886 22.3947C26.4247 22.2536 26.5435 22.1028 26.6444 21.9463L40.883 7.18374C41.5539 6.48809 41.3928 5.19319 40.5231 4.29154C39.6534 3.38989 38.4045 3.22289 37.7336 3.91854L24.6755 17.457ZM26.6741 19.5298C26.6657 19.5206 26.6571 19.5115 26.6485 19.5025L24.6755 17.457L22.7662 19.4365C22.7541 19.4491 22.7422 19.4619 22.7306 19.4748L24.6759 17.458L26.6741 19.5298ZM26.6796 21.8903C26.6681 21.909 26.6564 21.9277 26.6444 21.9463L25.9156 22.7019C25.891 22.7274 25.8655 22.7519 25.8393 22.7751C25.827 22.7835 25.8146 22.7918 25.8022 22.8C25.8026 22.7995 25.8031 22.799 25.8036 22.7985L26.6796 21.8903Z" fill="#3366FF"/>
<path opacity="0.29" fill-rule="evenodd" clip-rule="evenodd" d="M37.7334 3.91852L24.811 17.3328C24.7896 17.4419 26.1169 18.2466 27.8186 18.0219C29.7703 17.764 31.132 17.2617 31.803 16.5661L40.8828 7.18377C41.5538 6.48813 41.3927 5.19323 40.523 4.29158C39.6533 3.38992 38.4044 3.22287 37.7334 3.91852Z" fill="black"/>
<path d="M24.7113 11.1278C27.5515 11.1278 29.854 8.74061 29.854 5.79588C29.854 2.85116 27.5515 0.463989 24.7113 0.463989C21.8711 0.463989 19.5686 2.85116 19.5686 5.79588C19.5686 8.74061 21.8711 11.1278 24.7113 11.1278Z" fill="#3366FF"/>
<path fill-rule="evenodd" clip-rule="evenodd" d="M32.2905 24.4342L45.285 10.9616C45.9559 10.266 45.7948 8.97113 44.9252 8.06942C44.0555 7.16772 42.8066 7.00072 42.1356 7.69636L29.1351 21.1751L29.1339 21.1737L27.1371 23.244C26.5061 23.8982 26.5061 24.959 27.1371 25.6132L27.1472 25.6237C27.1518 25.6294 27.1564 25.6351 27.1611 25.6408C27.2644 25.8036 27.3868 25.9603 27.528 26.1066C27.6641 26.2477 27.8095 26.3708 27.9605 26.4755L42.1991 41.2379C42.8701 41.9335 44.119 41.7665 44.9887 40.8648C45.8584 39.9631 46.0195 38.6683 45.3485 37.9726H45.3485L32.2905 24.4342ZM32.2846 24.4404L32.2905 24.4342L30.3812 22.4546C30.3453 22.4174 30.3078 22.3827 30.2688 22.3504L32.2846 24.4404ZM27.9849 26.4922C27.9767 26.4867 27.9686 26.4811 27.9605 26.4755L27.2317 25.7199C27.2071 25.6943 27.1835 25.6679 27.1611 25.6408C27.1594 25.6382 27.1578 25.6356 27.1561 25.633L27.9849 26.4922Z" fill="#3366FF"/>
<path opacity="0.29" fill-rule="evenodd" clip-rule="evenodd" d="M45.3447 37.9701L32.4064 24.5723C32.3013 24.55 31.5251 25.9262 31.7419 27.6905C31.9906 29.714 32.475 31.1258 33.146 31.8215L42.1953 41.2354C42.8663 41.931 44.1153 41.764 44.9849 40.8623C45.8546 39.9606 46.0157 38.6658 45.3447 37.9701Z" fill="black"/>
<path fill-rule="evenodd" clip-rule="evenodd" d="M43.533 19.1357C44.5502 19.1357 45.5446 19.4485 46.3904 20.0344C47.2363 20.6204 47.8955 21.4532 48.2848 22.4276C48.6741 23.402 48.7759 24.4742 48.5775 25.5086C48.379 26.543 47.8891 27.4932 47.1698 28.239C46.4505 28.9847 45.5341 29.4926 44.5364 29.6984C43.5387 29.9041 42.5045 29.7985 41.5647 29.3949C40.6249 28.9913 39.8216 28.3078 39.2565 27.4309C38.6913 26.554 38.3896 25.523 38.3896 24.4683C38.3896 23.054 38.9315 21.6977 39.8961 20.6976C40.8607 19.6976 42.1689 19.1357 43.533 19.1357Z" fill="#3366FF"/>
<path fill-rule="evenodd" clip-rule="evenodd" d="M26.0051 26.1169C25.3741 25.4627 24.351 25.4627 23.72 26.1169L23.7096 26.1277C23.6993 26.1363 23.6891 26.1451 23.679 26.1541C23.522 26.2611 23.3709 26.3881 23.2298 26.5344C23.0937 26.6755 22.9749 26.8263 22.874 26.9828L8.63547 41.7453C7.96451 42.441 8.12558 43.7358 8.99529 44.6375C9.865 45.5392 11.1139 45.7062 11.7848 45.0105V45.0105L24.8429 31.4721L37.8373 44.9446C38.5083 45.6403 39.7572 45.4733 40.6269 44.5716C41.4966 43.6699 41.6577 42.375 40.9867 41.6794L27.9876 28.202L28.0019 28.1871L26.0051 26.1169ZM26.8417 29.39C26.8137 29.4254 26.7839 29.4596 26.7522 29.4925L24.8429 31.4721L22.87 29.4266C22.8246 29.3796 22.7831 29.3298 22.7453 29.2776L24.8477 31.4574L26.8417 29.39ZM22.8531 27.0156C22.86 27.0047 22.8669 26.9937 22.874 26.9828L23.6028 26.2272C23.6274 26.2017 23.6528 26.1773 23.679 26.1541C23.684 26.1507 23.6889 26.1473 23.6939 26.144L22.8531 27.0156Z" fill="#3366FF"/>
<path opacity="0.29" fill-rule="evenodd" clip-rule="evenodd" d="M11.7848 45.0105L24.7072 31.5962C24.7287 31.4872 23.4013 30.6825 21.6997 30.9072C19.7479 31.1651 18.3863 31.6673 17.7152 32.3629L8.63547 41.7453C7.96451 42.441 8.12558 43.7358 8.99529 44.6375C9.865 45.5392 11.1139 45.7062 11.7848 45.0105Z" fill="black"/>
<path fill-rule="evenodd" clip-rule="evenodd" d="M24.8096 37.7988C25.8268 37.7988 26.8212 38.1116 27.667 38.6975C28.5129 39.2835 29.1721 40.1163 29.5614 41.0907C29.9507 42.0651 30.0525 43.1373 29.8541 44.1717C29.6556 45.2061 29.1658 46.1563 28.4465 46.9021C27.7271 47.6478 26.8107 48.1557 25.813 48.3615C24.8153 48.5672 23.7811 48.4616 22.8413 48.058C21.9015 47.6544 21.0982 46.9709 20.5331 46.094C19.9679 45.2171 19.6663 44.1861 19.6663 43.1314C19.6663 41.7171 20.2081 40.3607 21.1727 39.3607C22.1373 38.3606 23.4455 37.7988 24.8096 37.7988Z" fill="#3366FF"/>
<path fill-rule="evenodd" clip-rule="evenodd" d="M17.0634 24.4973L4.07016 37.9686C3.39921 38.6643 3.56023 39.9591 4.42993 40.8608C5.29964 41.7625 6.54859 41.9295 7.21955 41.2339L20.2128 27.7626L20.2148 27.7646L22.2115 25.6944C22.8242 25.0592 22.842 24.0409 22.2651 23.3834C22.2428 23.3511 22.2191 23.3198 22.194 23.2894C22.0907 23.1266 21.9682 22.9699 21.8271 22.8236C21.691 22.6825 21.5456 22.5594 21.3945 22.4547L7.15594 7.69234C6.48498 6.99669 5.23609 7.16369 4.36638 8.0654C3.49667 8.9671 3.3356 10.2619 4.00656 10.9576H4.00667L17.0618 24.4931L17.0605 24.4944L17.0634 24.4973ZM21.3304 22.4116C21.3519 22.4256 21.3733 22.44 21.3945 22.4547L22.1234 23.2103C22.148 23.2359 22.1715 23.2623 22.194 23.2894C22.2044 23.3059 22.2146 23.3224 22.2247 23.339C22.2203 23.3343 22.2159 23.3297 22.2115 23.3251L21.3304 22.4116Z" fill="#3366FF"/>
<path opacity="0.29" fill-rule="evenodd" clip-rule="evenodd" d="M4.00656 10.9576L16.9449 24.3554C17.0501 24.3777 17.8262 23.0015 17.6094 21.2372C17.3607 19.2137 16.8763 17.8019 16.2054 17.1062L7.15594 7.69234C6.48498 6.99669 5.23609 7.16369 4.36638 8.0654C3.49667 8.9671 3.3356 10.2619 4.00656 10.9576Z" fill="black"/>
<path d="M5.81914 29.7909C8.65934 29.7909 10.9618 27.4037 10.9618 24.459C10.9618 21.5143 8.65934 19.1272 5.81914 19.1272C2.97895 19.1272 0.676514 21.5143 0.676514 24.459C0.676514 27.4037 2.97895 29.7909 5.81914 29.7909Z" fill="#3366FF"/>
<path d="M55.3365 24.424C55.3365 23.0373 55.6365 21.804 56.2365 20.724C56.8365 19.6307 57.6698 18.784 58.7365 18.184C59.8165 17.5707 61.0365 17.264 62.3965 17.264C64.0632 17.264 65.4898 17.704 66.6765 18.584C67.8632 19.464 68.6565 20.664 69.0565 22.184H65.2965C65.0165 21.5973 64.6165 21.1507 64.0965 20.844C63.5898 20.5373 63.0098 20.384 62.3565 20.384C61.3032 20.384 60.4498 20.7507 59.7965 21.484C59.1432 22.2173 58.8165 23.1973 58.8165 24.424C58.8165 25.6507 59.1432 26.6307 59.7965 27.364C60.4498 28.0973 61.3032 28.464 62.3565 28.464C63.0098 28.464 63.5898 28.3107 64.0965 28.004C64.6165 27.6973 65.0165 27.2507 65.2965 26.664H69.0565C68.6565 28.184 67.8632 29.384 66.6765 30.264C65.4898 31.1307 64.0632 31.564 62.3965 31.564C61.0365 31.564 59.8165 31.264 58.7365 30.664C57.6698 30.0507 56.8365 29.204 56.2365 28.124C55.6365 27.044 55.3365 25.8107 55.3365 24.424ZM76.2309 31.624C75.1376 31.624 74.1509 31.3907 73.2709 30.924C72.4042 30.4573 71.7176 29.7907 71.2109 28.924C70.7176 28.0573 70.4709 27.044 70.4709 25.884C70.4709 24.7373 70.7242 23.7307 71.2309 22.864C71.7376 21.984 72.4309 21.3107 73.3109 20.844C74.1909 20.3773 75.1776 20.144 76.2709 20.144C77.3642 20.144 78.3509 20.3773 79.2309 20.844C80.1109 21.3107 80.8042 21.984 81.3109 22.864C81.8176 23.7307 82.0709 24.7373 82.0709 25.884C82.0709 27.0307 81.8109 28.044 81.2909 28.924C80.7842 29.7907 80.0842 30.4573 79.1909 30.924C78.3109 31.3907 77.3242 31.624 76.2309 31.624ZM76.2309 28.664C76.8842 28.664 77.4376 28.424 77.8909 27.944C78.3576 27.464 78.5909 26.7773 78.5909 25.884C78.5909 24.9907 78.3642 24.304 77.9109 23.824C77.4709 23.344 76.9242 23.104 76.2709 23.104C75.6042 23.104 75.0509 23.344 74.6109 23.824C74.1709 24.2907 73.9509 24.9773 73.9509 25.884C73.9509 26.7773 74.1642 27.464 74.5909 27.944C75.0309 28.424 75.5776 28.664 76.2309 28.664ZM98.1253 20.184C99.5119 20.184 100.612 20.604 101.425 21.444C102.252 22.284 102.665 23.4507 102.665 24.944V31.464H99.2653V25.404C99.2653 24.684 99.0719 24.1307 98.6853 23.744C98.3119 23.344 97.7919 23.144 97.1253 23.144C96.4586 23.144 95.9319 23.344 95.5453 23.744C95.1719 24.1307 94.9853 24.684 94.9853 25.404V31.464H91.5853V25.404C91.5853 24.684 91.3919 24.1307 91.0053 23.744C90.6319 23.344 90.1119 23.144 89.4453 23.144C88.7786 23.144 88.2519 23.344 87.8653 23.744C87.4919 24.1307 87.3053 24.684 87.3053 25.404V31.464H83.8853V20.304H87.3053V21.704C87.6519 21.2373 88.1053 20.8707 88.6653 20.604C89.2253 20.324 89.8586 20.184 90.5653 20.184C91.4053 20.184 92.1519 20.364 92.8053 20.724C93.4719 21.084 93.9919 21.5973 94.3653 22.264C94.7519 21.6507 95.2786 21.1507 95.9453 20.764C96.6119 20.3773 97.3386 20.184 98.1253 20.184ZM108.477 21.884C108.81 21.364 109.27 20.944 109.857 20.624C110.444 20.304 111.13 20.144 111.917 20.144C112.837 20.144 113.67 20.3773 114.417 20.844C115.164 21.3107 115.75 21.9773 116.177 22.844C116.617 23.7107 116.837 24.7173 116.837 25.864C116.837 27.0107 116.617 28.024 116.177 28.904C115.75 29.7707 115.164 30.444 114.417 30.924C113.67 31.3907 112.837 31.624 111.917 31.624C111.144 31.624 110.457 31.464 109.857 31.144C109.27 30.824 108.81 30.4107 108.477 29.904V36.784H105.057V20.304H108.477V21.884ZM113.357 25.864C113.357 25.0107 113.117 24.344 112.637 23.864C112.17 23.3707 111.59 23.124 110.897 23.124C110.217 23.124 109.637 23.3707 109.157 23.864C108.69 24.3573 108.457 25.0307 108.457 25.884C108.457 26.7373 108.69 27.4107 109.157 27.904C109.637 28.3973 110.217 28.644 110.897 28.644C111.577 28.644 112.157 28.3973 112.637 27.904C113.117 27.3973 113.357 26.7173 113.357 25.864ZM129.151 25.704C129.151 26.024 129.131 26.3573 129.091 26.704H121.351C121.405 27.3973 121.625 27.9307 122.011 28.304C122.411 28.664 122.898 28.844 123.471 28.844C124.325 28.844 124.918 28.484 125.251 27.764H128.891C128.705 28.4973 128.365 29.1573 127.871 29.744C127.391 30.3307 126.785 30.7907 126.051 31.124C125.318 31.4573 124.498 31.624 123.591 31.624C122.498 31.624 121.525 31.3907 120.671 30.924C119.818 30.4573 119.151 29.7907 118.671 28.924C118.191 28.0573 117.951 27.044 117.951 25.884C117.951 24.724 118.185 23.7107 118.651 22.844C119.131 21.9773 119.798 21.3107 120.651 20.844C121.505 20.3773 122.485 20.144 123.591 20.144C124.671 20.144 125.631 20.3707 126.471 20.824C127.311 21.2773 127.965 21.924 128.431 22.764C128.911 23.604 129.151 24.584 129.151 25.704ZM125.651 24.804C125.651 24.2173 125.451 23.7507 125.051 23.404C124.651 23.0573 124.151 22.884 123.551 22.884C122.978 22.884 122.491 23.0507 122.091 23.384C121.705 23.7173 121.465 24.1907 121.371 24.804H125.651ZM137.176 28.564V31.464H135.436C134.196 31.464 133.229 31.164 132.536 30.564C131.842 29.9507 131.496 28.9573 131.496 27.584V23.144H130.136V20.304H131.496V17.584H134.916V20.304H137.156V23.144H134.916V27.624C134.916 27.9573 134.996 28.1973 135.156 28.344C135.316 28.4907 135.582 28.564 135.956 28.564H137.176ZM140.801 19.144C140.201 19.144 139.707 18.9707 139.321 18.624C138.947 18.264 138.761 17.824 138.761 17.304C138.761 16.7707 138.947 16.3307 139.321 15.984C139.707 15.624 140.201 15.444 140.801 15.444C141.387 15.444 141.867 15.624 142.241 15.984C142.627 16.3307 142.821 16.7707 142.821 17.304C142.821 17.824 142.627 18.264 142.241 18.624C141.867 18.9707 141.387 19.144 140.801 19.144ZM142.501 20.304V31.464H139.081V20.304H142.501ZM150.579 23.144H148.739V31.464H145.319V23.144H144.079V20.304H145.319V19.984C145.319 18.6107 145.712 17.5707 146.499 16.864C147.286 16.144 148.439 15.784 149.959 15.784C150.212 15.784 150.399 15.7907 150.519 15.804V18.704C149.866 18.664 149.406 18.7573 149.139 18.984C148.872 19.2107 148.739 19.6173 148.739 20.204V20.304H150.579V23.144ZM163.586 20.304L156.586 36.764H152.906L155.466 31.084L150.926 20.304H154.746L157.326 27.284L159.886 20.304H163.586Z" fill="#3366FF"/>
</svg>
