<svg width="32" height="32" viewBox="0 0 32 32" fill="none" xmlns="http://www.w3.org/2000/svg">
<path d="M16.0534 2.66664C8.7734 2.66664 2.84007 8.59998 2.84007 15.88C2.84007 18.2133 3.4534 20.48 4.60007 22.48L2.7334 29.3333L9.7334 27.4933C11.6667 28.5466 13.8401 29.1066 16.0534 29.1066C23.3334 29.1066 29.2667 23.1733 29.2667 15.8933C29.2667 12.36 27.8934 9.03998 25.4001 6.54664C24.1777 5.31188 22.7216 4.33287 21.1169 3.66671C19.5122 3.00056 17.7909 2.66059 16.0534 2.66664ZM16.0667 4.89331C19.0001 4.89331 21.7467 6.03998 23.8267 8.11998C24.8475 9.14045 25.6569 10.3524 26.2083 11.6863C26.7597 13.0203 27.0424 14.4499 27.0401 15.8933C27.0401 21.9466 22.1067 26.8666 16.0534 26.8666C14.0801 26.8666 12.1467 26.3466 10.4667 25.3333L10.0667 25.1066L5.90673 26.2L7.0134 22.1466L6.74673 21.72C5.64532 19.9715 5.06275 17.9464 5.06673 15.88C5.08006 9.82664 10.0001 4.89331 16.0667 4.89331ZM11.3734 9.77331C11.1601 9.77331 10.8001 9.85331 10.4934 10.1866C10.2001 10.52 9.3334 11.3333 9.3334 12.9466C9.3334 14.5733 10.5201 16.1333 10.6667 16.36C10.8534 16.5866 13.0134 19.92 16.3334 21.3333C17.1201 21.6933 17.7334 21.8933 18.2134 22.04C19.0001 22.2933 19.7201 22.2533 20.2934 22.1733C20.9334 22.08 22.2401 21.3733 22.5201 20.6C22.8001 19.8266 22.8001 19.1733 22.7201 19.0266C22.6267 18.8933 22.4134 18.8133 22.0801 18.6666C21.7467 18.48 20.1201 17.68 19.8267 17.5733C19.5201 17.4666 19.3334 17.4133 19.0801 17.7333C18.8667 18.0666 18.2267 18.8133 18.0401 19.0266C17.8401 19.2533 17.6534 19.28 17.3334 19.12C16.9867 18.9466 15.9201 18.6 14.6667 17.48C13.6801 16.6 13.0267 15.52 12.8267 15.1866C12.6667 14.8666 12.8134 14.6666 12.9734 14.52C13.1201 14.3733 13.3334 14.1333 13.4667 13.9333C13.6401 13.7466 13.6934 13.6 13.8001 13.3866C13.9067 13.16 13.8534 12.9733 13.7734 12.8133C13.6934 12.6666 13.0267 11.0133 12.7467 10.36C12.4801 9.71998 12.2134 9.79998 12.0001 9.78664C11.8134 9.78664 11.6001 9.77331 11.3734 9.77331Z" fill="#3366FF"/>
</svg>
