<svg width="33" height="32" viewBox="0 0 33 32" fill="none" xmlns="http://www.w3.org/2000/svg">
<path d="M10.7333 2.66669H21.9333C26.2 2.66669 29.6667 6.13335 29.6667 10.4V21.6C29.6667 23.651 28.8519 25.618 27.4016 27.0683C25.9513 28.5186 23.9843 29.3334 21.9333 29.3334H10.7333C6.46667 29.3334 3 25.8667 3 21.6V10.4C3 8.34901 3.81476 6.38201 5.26504 4.93173C6.71532 3.48145 8.68233 2.66669 10.7333 2.66669ZM10.4667 5.33335C9.19363 5.33335 7.97273 5.83907 7.07255 6.73924C6.17238 7.63942 5.66667 8.86031 5.66667 10.1334V21.8667C5.66667 24.52 7.81333 26.6667 10.4667 26.6667H22.2C23.473 26.6667 24.6939 26.161 25.5941 25.2608C26.4943 24.3606 27 23.1397 27 21.8667V10.1334C27 7.48002 24.8533 5.33335 22.2 5.33335H10.4667ZM23.3333 7.33335C23.7754 7.33335 24.1993 7.50895 24.5118 7.82151C24.8244 8.13407 25 8.55799 25 9.00002C25 9.44205 24.8244 9.86597 24.5118 10.1785C24.1993 10.4911 23.7754 10.6667 23.3333 10.6667C22.8913 10.6667 22.4674 10.4911 22.1548 10.1785C21.8423 9.86597 21.6667 9.44205 21.6667 9.00002C21.6667 8.55799 21.8423 8.13407 22.1548 7.82151C22.4674 7.50895 22.8913 7.33335 23.3333 7.33335ZM16.3333 9.33335C18.1014 9.33335 19.7971 10.0357 21.0474 11.286C22.2976 12.5362 23 14.2319 23 16C23 17.7681 22.2976 19.4638 21.0474 20.7141C19.7971 21.9643 18.1014 22.6667 16.3333 22.6667C14.5652 22.6667 12.8695 21.9643 11.6193 20.7141C10.369 19.4638 9.66667 17.7681 9.66667 16C9.66667 14.2319 10.369 12.5362 11.6193 11.286C12.8695 10.0357 14.5652 9.33335 16.3333 9.33335ZM16.3333 12C15.2725 12 14.2551 12.4214 13.5049 13.1716C12.7548 13.9217 12.3333 14.9392 12.3333 16C12.3333 17.0609 12.7548 18.0783 13.5049 18.8284C14.2551 19.5786 15.2725 20 16.3333 20C17.3942 20 18.4116 19.5786 19.1618 18.8284C19.9119 18.0783 20.3333 17.0609 20.3333 16C20.3333 14.9392 19.9119 13.9217 19.1618 13.1716C18.4116 12.4214 17.3942 12 16.3333 12Z" fill="#3366FF"/>
</svg>
