<svg width="33" height="32" viewBox="0 0 33 32" fill="none" xmlns="http://www.w3.org/2000/svg">
<path d="M26.0003 4C26.7076 4 27.3858 4.28095 27.8859 4.78105C28.386 5.28115 28.667 5.95942 28.667 6.66667V25.3333C28.667 26.0406 28.386 26.7189 27.8859 27.219C27.3858 27.719 26.7076 28 26.0003 28H7.33366C6.62641 28 5.94814 27.719 5.44804 27.219C4.94794 26.7189 4.66699 26.0406 4.66699 25.3333V6.66667C4.66699 5.95942 4.94794 5.28115 5.44804 4.78105C5.94814 4.28095 6.62641 4 7.33366 4H26.0003ZM25.3337 24.6667V17.6C25.3337 16.4472 24.8757 15.3416 24.0605 14.5264C23.2454 13.7113 22.1398 13.2533 20.987 13.2533C19.8537 13.2533 18.5337 13.9467 17.8937 14.9867V13.5067H14.1737V24.6667H17.8937V18.0933C17.8937 17.0667 18.7203 16.2267 19.747 16.2267C20.2421 16.2267 20.7169 16.4233 21.0669 16.7734C21.417 17.1235 21.6137 17.5983 21.6137 18.0933V24.6667H25.3337ZM9.84033 11.4133C10.4344 11.4133 11.0042 11.1773 11.4242 10.7573C11.8443 10.3372 12.0803 9.76742 12.0803 9.17333C12.0803 7.93333 11.0803 6.92 9.84033 6.92C9.2427 6.92 8.66956 7.1574 8.24698 7.57999C7.8244 8.00257 7.58699 8.57571 7.58699 9.17333C7.58699 10.4133 8.60033 11.4133 9.84033 11.4133ZM11.6937 24.6667V13.5067H8.00033V24.6667H11.6937Z" fill="#3366FF"/>
</svg>
