<svg width="620" height="462" viewBox="0 0 620 462" fill="none" xmlns="http://www.w3.org/2000/svg">
<path d="M620 405.976H0V406.286H620V405.976Z" fill="#EBEBEB"/>
<path d="M557.876 425.928H516.807V426.238H557.876V425.928Z" fill="#EBEBEB"/>
<path d="M410.713 429.3H399.937V429.61H410.713V429.3Z" fill="#EBEBEB"/>
<path d="M515.567 414.42H491.771V414.73H515.567V414.42Z" fill="#EBEBEB"/>
<path d="M118.606 416.504H65.0504V416.814H118.606V416.504Z" fill="#EBEBEB"/>
<path d="M137.504 416.504H129.654V416.814H137.504V416.504Z" fill="#EBEBEB"/>
<path d="M279.186 421.736H163.023V422.046H279.186V421.736Z" fill="#EBEBEB"/>
<path d="M293.88 350.672H54.4484C52.5727 350.669 50.7749 349.921 49.4498 348.594C48.1246 347.266 47.3804 345.467 47.3804 343.592V7.0184C47.3967 5.15347 48.1482 3.37029 49.4716 2.05619C50.795 0.742088 52.5834 0.00319472 54.4484 0H293.88C295.758 0 297.559 0.745969 298.887 2.0738C300.214 3.40163 300.96 5.20256 300.96 7.0804V343.592C300.96 345.469 300.214 347.27 298.887 348.598C297.559 349.926 295.758 350.672 293.88 350.672ZM54.4484 0.248001C52.6549 0.251286 50.936 0.966041 49.669 2.23538C48.402 3.50472 47.6904 5.22492 47.6904 7.0184V343.592C47.6904 345.385 48.402 347.105 49.669 348.375C50.936 349.644 52.6549 350.359 54.4484 350.362H293.88C295.675 350.359 297.395 349.644 298.664 348.375C299.933 347.106 300.647 345.386 300.65 343.592V7.0184C300.647 5.22378 299.933 3.50361 298.664 2.23462C297.395 0.965638 295.675 0.251279 293.88 0.248001H54.4484Z" fill="#EBEBEB"/>
<path d="M562.104 350.672H322.66C320.784 350.669 318.985 349.922 317.657 348.595C316.33 347.267 315.583 345.468 315.58 343.592V7.0184C315.6 5.15234 316.354 3.36918 317.679 2.05542C319.004 0.741655 320.794 0.00315988 322.66 0H562.104C563.967 0.00645358 565.752 0.746789 567.073 2.06054C568.394 3.3743 569.144 5.15561 569.16 7.0184V343.592C569.16 345.465 568.417 347.262 567.095 348.589C565.772 349.917 563.978 350.665 562.104 350.672ZM322.66 0.248001C320.866 0.251279 319.146 0.965638 317.877 2.23462C316.608 3.50361 315.893 5.22378 315.89 7.0184V343.592C315.893 345.386 316.608 347.106 317.877 348.375C319.146 349.644 320.866 350.359 322.66 350.362H562.104C563.899 350.359 565.619 349.644 566.888 348.375C568.157 347.106 568.871 345.386 568.875 343.592V7.0184C568.871 5.22378 568.157 3.50361 566.888 2.23462C565.619 0.965638 563.899 0.251279 562.104 0.248001H322.66Z" fill="#EBEBEB"/>
<path d="M300.502 147.411H124.446V405.542H300.502V147.411Z" fill="#F0F0F0"/>
<path d="M294.277 155.533H130.659V203.211H294.277V155.533Z" fill="#E0E0E0"/>
<path d="M139.959 163.246H130.659V203.199H139.959V163.246Z" fill="#EBEBEB"/>
<path d="M184.909 163.246H175.609V203.199H184.909V163.246Z" fill="#EBEBEB"/>
<path d="M235.925 162.243L226.76 163.822L233.546 203.194L242.711 201.615L235.925 162.243Z" fill="#EBEBEB"/>
<path d="M151.478 168.516H142.178V203.211H151.478V168.516Z" fill="#EBEBEB"/>
<path d="M172.844 168.516H163.544V203.211H172.844V168.516Z" fill="#EBEBEB"/>
<path d="M226.771 168.516H217.471V203.211H226.771V168.516Z" fill="#EBEBEB"/>
<path d="M197.124 167.312L188.046 169.33L195.573 203.199L204.651 201.181L197.124 167.312Z" fill="#EBEBEB"/>
<path d="M159.514 161.262H154.864V203.199H159.514V161.262Z" fill="#EBEBEB"/>
<path d="M214.793 161.262H210.143V203.199H214.793V161.262Z" fill="#EBEBEB"/>
<path d="M130.671 258.441H294.289V210.763L130.671 210.763V258.441Z" fill="#E0E0E0"/>
<path d="M284.977 258.428H294.277V218.476H284.977V258.428Z" fill="#EBEBEB"/>
<path d="M240.039 258.428H249.339V218.476H240.039V258.428Z" fill="#EBEBEB"/>
<path d="M182.239 256.841L191.404 258.421L198.191 219.048L189.026 217.469L182.239 256.841Z" fill="#EBEBEB"/>
<path d="M273.457 258.441H282.757V223.746H273.457V258.441Z" fill="#EBEBEB"/>
<path d="M252.104 258.441H261.404V223.746H252.104V258.441Z" fill="#EBEBEB"/>
<path d="M198.177 258.441H207.477V223.746H198.177V258.441Z" fill="#EBEBEB"/>
<path d="M220.327 256.414L229.405 258.431L236.932 224.562L227.854 222.545L220.327 256.414Z" fill="#EBEBEB"/>
<path d="M265.422 258.428H270.072V216.492H265.422V258.428Z" fill="#EBEBEB"/>
<path d="M210.155 258.428H214.805V216.492H210.155V258.428Z" fill="#EBEBEB"/>
<path d="M139.959 218.476H130.659V258.428H139.959V218.476Z" fill="#EBEBEB"/>
<path d="M151.478 223.733H142.178V258.428H151.478V223.733Z" fill="#EBEBEB"/>
<path d="M172.844 223.733H163.544V258.428H172.844V223.733Z" fill="#EBEBEB"/>
<path d="M159.514 216.492H154.864V258.428H159.514V216.492Z" fill="#EBEBEB"/>
<path d="M294.277 265.98H130.659V313.658H294.277V265.98Z" fill="#E0E0E0"/>
<path d="M233.876 273.693H224.576V313.646H233.876V273.693Z" fill="#EBEBEB"/>
<path d="M284.9 272.686L275.735 274.266L282.522 313.638L291.686 312.058L284.9 272.686Z" fill="#EBEBEB"/>
<path d="M200.446 278.963H191.146V313.658H200.446V278.963Z" fill="#EBEBEB"/>
<path d="M221.811 278.963H212.511V313.658H221.811V278.963Z" fill="#EBEBEB"/>
<path d="M275.739 278.963H266.439V313.658H275.739V278.963Z" fill="#EBEBEB"/>
<path d="M246.096 277.76L237.017 279.778L244.545 313.647L253.623 311.629L246.096 277.76Z" fill="#EBEBEB"/>
<path d="M208.481 271.709H203.831V313.646H208.481V271.709Z" fill="#EBEBEB"/>
<path d="M263.76 271.709H259.11V313.646H263.76V271.709Z" fill="#EBEBEB"/>
<path d="M177.966 272.696L168.801 274.275L175.588 313.648L184.753 312.068L177.966 272.696Z" fill="#EBEBEB"/>
<path d="M168.801 278.963H159.501V313.658H168.801V278.963Z" fill="#EBEBEB"/>
<path d="M139.163 277.76L130.085 279.778L137.612 313.647L146.69 311.629L139.163 277.76Z" fill="#EBEBEB"/>
<path d="M156.835 271.709H152.185V313.646H156.835V271.709Z" fill="#EBEBEB"/>
<path d="M94.0664 406.212H124.446L124.446 147.411H94.0664L94.0664 406.212Z" fill="#E0E0E0"/>
<path d="M403.546 399.454H377.741L391.307 288.92C391.632 286.611 392.767 284.492 394.509 282.941C396.25 281.39 398.486 280.507 400.818 280.451H513.36L496.856 399.404L403.546 399.454Z" fill="#F5F5F5"/>
<path d="M485.386 399.454H511.19L524.768 288.92C524.934 287.857 524.864 286.771 524.564 285.739C524.263 284.706 523.74 283.752 523.03 282.944C522.32 282.136 521.442 281.494 520.456 281.063C519.471 280.633 518.403 280.423 517.328 280.451H508.462C506.135 280.522 503.907 281.409 502.168 282.958C500.43 284.506 499.291 286.617 498.951 288.92L485.386 399.454Z" fill="#F0F0F0"/>
<path d="M475.887 399.28L480.562 345.836C480.661 344.677 481.154 343.586 481.96 342.747C482.765 341.907 483.834 341.369 484.989 341.223L486.911 340.975C488.462 340.781 489.9 340.059 490.981 338.93C492.063 337.801 492.723 336.334 492.85 334.775L493.706 325.029C493.79 324.084 493.677 323.132 493.373 322.233C493.069 321.334 492.582 320.509 491.941 319.809C491.301 319.109 490.522 318.55 489.654 318.168C488.785 317.786 487.847 317.588 486.898 317.589H530.026C530.974 317.588 531.913 317.786 532.781 318.168C533.649 318.55 534.428 319.109 535.069 319.809C535.709 320.509 536.197 321.334 536.5 322.233C536.804 323.132 536.918 324.084 536.833 325.029L535.978 334.775C535.85 336.334 535.19 337.801 534.108 338.93C533.027 340.059 531.589 340.781 530.038 340.975L528.116 341.223C526.963 341.372 525.895 341.91 525.089 342.749C524.284 343.588 523.79 344.677 523.689 345.836L519.014 399.28C518.847 401.158 517.983 402.906 516.593 404.179C515.202 405.453 513.386 406.16 511.5 406.162H468.373C470.258 406.16 472.075 405.453 473.466 404.179C474.856 402.906 475.72 401.158 475.887 399.28Z" fill="#E6E6E6"/>
<path d="M357.194 332.506C356.853 328.449 355 324.669 352.003 321.913C349.006 319.157 345.084 317.627 341.012 317.626H378.56C382.62 317.643 386.527 319.18 389.511 321.934C392.495 324.688 394.339 328.46 394.68 332.506L398.4 374.864H360.902L357.194 332.506Z" fill="#E6E6E6"/>
<path d="M324.334 317.676H341C345.071 317.677 348.994 319.207 351.991 321.962C354.987 324.718 356.84 328.499 357.182 332.556L360.902 374.914H450.331L454.051 332.556C454.389 328.508 456.232 324.735 459.216 321.98C462.201 319.225 466.109 317.689 470.171 317.676H486.849C487.797 317.675 488.736 317.873 489.604 318.255C490.472 318.637 491.251 319.196 491.892 319.896C492.532 320.596 493.02 321.421 493.324 322.32C493.627 323.219 493.741 324.171 493.656 325.116L492.801 334.862C492.673 336.42 492.013 337.887 490.932 339.017C489.85 340.146 488.413 340.868 486.861 341.062L484.939 341.31C483.785 341.456 482.716 341.994 481.91 342.834C481.104 343.673 480.611 344.763 480.512 345.923L475.887 399.28C475.72 401.158 474.856 402.906 473.466 404.179C472.075 405.453 470.258 406.16 468.373 406.162H342.86C340.974 406.16 339.158 405.453 337.767 404.179C336.377 402.906 335.513 401.158 335.346 399.28L330.671 345.836C330.568 344.678 330.073 343.59 329.268 342.752C328.463 341.913 327.397 341.374 326.244 341.223L324.322 340.975C322.77 340.779 321.332 340.057 320.249 338.928C319.166 337.8 318.502 336.334 318.37 334.775L317.527 325.029C317.455 324.091 317.578 323.148 317.887 322.26C318.197 321.372 318.687 320.557 319.326 319.866C319.965 319.176 320.74 318.625 321.601 318.248C322.463 317.871 323.394 317.676 324.334 317.676Z" fill="#F0F0F0"/>
<path d="M126.678 134.515C126.678 134.515 125.302 125.451 131.911 119.635C138.52 113.82 137.938 110.372 136.04 109.926C134.143 109.48 132.42 115.283 129.518 116.882C129.518 116.882 129.419 108.599 132.37 105.561C135.321 102.523 136.871 94.6492 134.056 94.5128C131.242 94.3764 130.969 99.1752 130.336 102.585C129.704 105.995 126.616 110.782 126.616 110.782C126.616 110.782 126.009 103.342 124.136 100.328C122.264 97.3153 127.311 90.3092 125.376 87.2712C123.442 84.2332 119.933 90.024 120.218 96.5588C120.503 103.094 124.868 110.062 123.851 116.882C123.851 116.882 121.929 112.084 120.206 111.65C118.482 111.216 116.734 108.054 115.58 106.876C114.427 105.698 112.964 109.765 115.58 113.534C118.197 117.304 124.868 127.41 123.851 135.569L126.678 134.515Z" fill="#E6E6E6"/>
<path d="M130.622 130.386L132.792 143.964C132.947 144.95 132.888 145.958 132.617 146.918C132.346 147.879 131.87 148.769 131.222 149.528C130.573 150.287 129.768 150.897 128.862 151.315C127.956 151.733 126.97 151.949 125.972 151.95H123.665C122.667 151.949 121.681 151.733 120.775 151.315C119.868 150.897 119.063 150.287 118.415 149.528C117.767 148.769 117.291 147.879 117.02 146.918C116.749 145.958 116.689 144.95 116.845 143.964L119.04 130.386H130.622Z" fill="#E6E6E6"/>
<path d="M260.462 149.296H267.195V120.342H260.462V149.296Z" fill="#EBEBEB"/>
<path d="M227.9 149.296H234.633V120.342H227.9V149.296Z" fill="#EBEBEB"/>
<path d="M186.018 148.145L192.653 149.289L197.571 120.756L190.936 119.612L186.018 148.145Z" fill="#EBEBEB"/>
<path d="M252.117 149.284H258.85V124.149H252.117V149.284Z" fill="#EBEBEB"/>
<path d="M236.642 149.284H243.375V124.149H236.642V149.284Z" fill="#EBEBEB"/>
<path d="M197.557 149.284H204.29V124.149H197.557V149.284Z" fill="#EBEBEB"/>
<path d="M213.615 147.826L220.188 149.286L225.641 124.75L219.068 123.289L213.615 147.826Z" fill="#EBEBEB"/>
<path d="M246.289 149.296H249.662V118.904H246.289V149.296Z" fill="#EBEBEB"/>
<path d="M206.224 149.296H209.597V118.904H206.224V149.296Z" fill="#EBEBEB"/>
<path d="M182.218 126.306H149.395V148.961H182.218V126.306Z" fill="#EBEBEB"/>
<path d="M294.785 135.582H267.294V152.495H294.785V135.582Z" fill="#EBEBEB"/>
<path d="M288.362 120.714H274.61V137.628H288.362V120.714Z" fill="#EBEBEB"/>
<path d="M518.085 98.3321H485.386V234.583H518.085V98.3321Z" fill="#E0E0E0"/>
<path d="M392.286 234.955L514.575 234.955V98.3444L392.286 98.3444V234.955Z" fill="#E0E0E0"/>
<path d="M388.343 234.955L515.22 234.955V98.3444L388.343 98.3444V234.955Z" fill="#F0F0F0"/>
<path d="M393.774 228.668L510.012 228.668V102.684L393.774 102.684V228.668Z" fill="white"/>
<path d="M393.762 228.668H395.92V102.684H393.762V228.668Z" fill="#E0E0E0"/>
<path d="M395.572 193.291V196.689H510.322V193.291H395.572Z" fill="#E0E0E0"/>
<path d="M393.762 193.279L511.822 193.279V187.575H393.762V193.279Z" fill="#F0F0F0"/>
<path d="M310 461.974C442.782 461.974 550.424 455.69 550.424 447.938C550.424 440.185 442.782 433.901 310 433.901C177.218 433.901 69.5764 440.185 69.5764 447.938C69.5764 455.69 177.218 461.974 310 461.974Z" fill="#F5F5F5"/>
<path d="M399.218 121.297H177.37C172.357 121.297 168.293 125.361 168.293 130.374V391.592C168.293 396.605 172.357 400.669 177.37 400.669H399.218C404.231 400.669 408.295 396.605 408.295 391.592V130.374C408.295 125.361 404.231 121.297 399.218 121.297Z" fill="#3366FF"/>
<path opacity="0.6" d="M399.218 121.297H177.37C172.357 121.297 168.293 125.361 168.293 130.374V391.592C168.293 396.605 172.357 400.669 177.37 400.669H399.218C404.231 400.669 408.295 396.605 408.295 391.592V130.374C408.295 125.361 404.231 121.297 399.218 121.297Z" fill="white"/>
<path d="M369.421 249.426H207.179V277.202H369.421V249.426Z" fill="white"/>
<g opacity="0.4">
<path d="M221.687 266.017V266.749H216.058V258.788H221.514V259.507H216.901V262.347H221.018V263.054H216.901V266.017H221.687Z" fill="#001A66"/>
<path d="M222.816 263.314H225.804V264.008H222.816V263.314Z" fill="#001A66"/>
<path d="M237.472 263.277V266.749H236.666V263.351C236.666 262.111 236.034 261.442 234.955 261.442C234.676 261.429 234.396 261.477 234.137 261.583C233.878 261.689 233.646 261.851 233.455 262.056C233.265 262.262 233.122 262.506 233.036 262.773C232.951 263.039 232.924 263.321 232.959 263.599V266.749H232.14V263.351C232.14 262.111 231.508 261.442 230.417 261.442C230.137 261.429 229.858 261.477 229.599 261.583C229.34 261.689 229.107 261.851 228.917 262.056C228.727 262.262 228.584 262.506 228.498 262.773C228.412 263.039 228.386 263.321 228.42 263.599V266.749H227.602V260.76H228.383V261.851C228.617 261.485 228.943 261.187 229.328 260.987C229.713 260.787 230.144 260.692 230.578 260.71C231.016 260.673 231.455 260.772 231.835 260.994C232.214 261.216 232.516 261.55 232.698 261.95C232.946 261.55 233.297 261.225 233.713 261.007C234.13 260.788 234.597 260.686 235.067 260.71C235.403 260.684 235.741 260.735 236.056 260.857C236.371 260.979 236.654 261.171 236.885 261.417C237.115 261.663 237.288 261.958 237.39 262.28C237.492 262.602 237.52 262.943 237.472 263.277Z" fill="#001A66"/>
<path d="M244.193 263.029V266.749H243.412V265.806C243.19 266.142 242.882 266.411 242.519 266.586C242.157 266.76 241.754 266.834 241.354 266.798C240.002 266.798 239.171 266.092 239.171 265.062C239.171 264.033 239.766 263.364 241.478 263.364H243.375V263.004C243.375 261.975 242.804 261.417 241.688 261.417C240.96 261.409 240.253 261.659 239.692 262.124L239.332 261.528C240.033 260.965 240.914 260.674 241.812 260.71C242.129 260.671 242.45 260.704 242.752 260.806C243.054 260.908 243.33 261.077 243.558 261.299C243.787 261.522 243.962 261.793 244.072 262.092C244.182 262.391 244.223 262.711 244.193 263.029ZM243.375 264.951V263.971H241.502C240.349 263.971 239.965 264.418 239.965 265.038C239.965 265.658 240.523 266.166 241.478 266.166C241.882 266.193 242.285 266.089 242.626 265.87C242.968 265.652 243.23 265.329 243.375 264.951Z" fill="#001A66"/>
<path d="M246.202 258.875C246.204 258.798 246.22 258.723 246.251 258.653C246.282 258.583 246.326 258.519 246.381 258.466C246.437 258.413 246.502 258.372 246.573 258.344C246.645 258.316 246.721 258.303 246.797 258.304C246.872 258.303 246.947 258.316 247.016 258.343C247.086 258.37 247.15 258.411 247.204 258.463C247.258 258.514 247.302 258.576 247.332 258.645C247.362 258.714 247.378 258.787 247.38 258.862C247.382 258.94 247.368 259.017 247.339 259.089C247.311 259.161 247.268 259.227 247.214 259.283C247.159 259.338 247.095 259.382 247.023 259.412C246.952 259.442 246.875 259.458 246.797 259.458C246.72 259.459 246.643 259.445 246.57 259.417C246.498 259.388 246.433 259.346 246.377 259.291C246.322 259.237 246.278 259.172 246.248 259.101C246.217 259.029 246.202 258.952 246.202 258.875ZM246.388 260.76H247.194V266.749H246.388V260.76Z" fill="#001A66"/>
<path d="M249.438 258.304H250.244V266.749H249.438V258.304Z" fill="#001A66"/>
</g>
<path d="M369.421 287.37H207.179V315.146H369.421V287.37Z" fill="white"/>
<g opacity="0.4">
<path d="M222.282 299.497C222.282 301.196 221.042 302.225 219.034 302.225H216.901V304.705H216.058V296.745H219.034C221.055 296.769 222.282 297.799 222.282 299.497ZM221.439 299.497C221.439 298.257 220.608 297.501 218.959 297.501H216.851V301.481H218.959C220.608 301.481 221.439 300.75 221.439 299.497Z" fill="#001A66"/>
<path d="M228.396 301.023V304.743H227.614V303.8C227.393 304.136 227.084 304.405 226.722 304.58C226.359 304.754 225.957 304.828 225.556 304.792C224.204 304.792 223.374 304.085 223.374 303.044C223.374 302.002 223.969 301.32 225.68 301.32H227.577V300.948C227.577 299.931 226.994 299.373 225.878 299.373C225.154 299.364 224.45 299.615 223.894 300.08L223.522 299.473C224.229 298.921 225.107 298.636 226.002 298.667C226.323 298.625 226.65 298.657 226.956 298.76C227.263 298.863 227.542 299.035 227.773 299.262C228.003 299.489 228.179 299.765 228.287 300.07C228.395 300.375 228.432 300.701 228.396 301.023ZM227.59 302.932V301.953H225.68C224.527 301.953 224.155 302.411 224.155 303.031C224.155 303.651 224.7 304.147 225.668 304.147C226.076 304.178 226.483 304.076 226.829 303.857C227.175 303.638 227.442 303.314 227.59 302.932Z" fill="#001A66"/>
<path d="M229.76 304.048L230.119 303.416C230.745 303.852 231.489 304.086 232.252 304.085C233.38 304.085 233.852 303.701 233.852 303.106C233.852 301.543 229.97 302.771 229.97 300.415C229.97 299.435 230.814 298.704 232.339 298.704C233.083 298.697 233.815 298.89 234.459 299.262L234.1 299.907C233.578 299.562 232.964 299.385 232.339 299.398C231.26 299.398 230.776 299.82 230.776 300.39C230.776 302.002 234.658 300.787 234.658 303.081C234.658 304.123 233.752 304.792 232.178 304.792C231.312 304.815 230.463 304.553 229.76 304.048Z" fill="#001A66"/>
<path d="M235.315 304.048L235.687 303.416C236.305 303.857 237.047 304.092 237.807 304.085C238.948 304.085 239.407 303.701 239.407 303.106C239.407 301.543 235.538 302.771 235.538 300.415C235.538 299.435 236.381 298.704 237.894 298.704C238.638 298.694 239.371 298.887 240.014 299.262L239.667 299.907C239.14 299.563 238.523 299.386 237.894 299.398C236.815 299.398 236.344 299.82 236.344 300.39C236.344 302.002 240.225 300.787 240.225 303.081C240.225 304.123 239.308 304.792 237.745 304.792C236.876 304.813 236.023 304.552 235.315 304.048Z" fill="#001A66"/>
<path d="M250.368 298.753L248.112 304.73H247.355L245.52 299.832L243.635 304.73H242.879L240.56 298.753H241.329L243.214 303.837L245.136 298.753H245.83L247.74 303.837L249.637 298.753H250.368Z" fill="#001A66"/>
<path d="M250.815 301.742C250.815 301.138 250.994 300.549 251.329 300.047C251.664 299.545 252.141 299.154 252.698 298.923C253.255 298.693 253.869 298.632 254.46 298.75C255.052 298.868 255.596 299.158 256.022 299.585C256.449 300.011 256.739 300.555 256.857 301.146C256.975 301.738 256.914 302.352 256.683 302.909C256.453 303.466 256.062 303.943 255.56 304.278C255.058 304.613 254.469 304.792 253.865 304.792C253.461 304.806 253.058 304.736 252.682 304.588C252.305 304.44 251.964 304.215 251.677 303.929C251.391 303.643 251.167 303.301 251.019 302.925C250.87 302.549 250.801 302.146 250.815 301.742ZM256.085 301.742C256.065 301.304 255.918 300.883 255.66 300.529C255.403 300.174 255.047 299.904 254.638 299.751C254.228 299.597 253.782 299.568 253.355 299.666C252.929 299.764 252.54 299.985 252.239 300.302C251.937 300.619 251.735 301.017 251.658 301.448C251.581 301.879 251.632 302.323 251.806 302.725C251.979 303.127 252.267 303.469 252.633 303.708C252.999 303.948 253.428 304.075 253.865 304.073C254.168 304.079 254.468 304.022 254.748 303.905C255.027 303.788 255.279 303.615 255.488 303.396C255.697 303.176 255.858 302.916 255.96 302.631C256.063 302.347 256.106 302.044 256.085 301.742Z" fill="#001A66"/>
<path d="M261.566 298.704V299.485H261.367C261.083 299.471 260.8 299.52 260.538 299.629C260.275 299.737 260.04 299.901 259.848 300.111C259.656 300.32 259.513 300.57 259.428 300.841C259.344 301.112 259.32 301.398 259.358 301.68V304.73H258.552V298.753H259.321V299.919C259.53 299.515 259.856 299.182 260.256 298.966C260.657 298.749 261.113 298.658 261.566 298.704Z" fill="#001A66"/>
<path d="M268.423 296.36V304.792H267.654V303.614C267.413 304.006 267.073 304.327 266.668 304.545C266.263 304.763 265.807 304.87 265.348 304.854C264.574 304.805 263.848 304.462 263.317 303.897C262.787 303.332 262.492 302.585 262.492 301.81C262.492 301.034 262.787 300.288 263.317 299.723C263.848 299.157 264.574 298.815 265.348 298.766C265.801 298.756 266.25 298.865 266.648 299.082C267.046 299.3 267.38 299.618 267.617 300.006V296.36H268.423ZM267.629 301.804C267.61 301.366 267.462 300.945 267.205 300.591C266.948 300.237 266.592 299.966 266.182 299.813C265.772 299.659 265.326 299.63 264.9 299.728C264.473 299.826 264.085 300.047 263.783 300.364C263.481 300.681 263.279 301.079 263.202 301.51C263.125 301.941 263.177 302.385 263.35 302.787C263.523 303.189 263.811 303.531 264.177 303.771C264.543 304.01 264.972 304.137 265.41 304.135C265.718 304.142 266.024 304.083 266.308 303.963C266.592 303.842 266.848 303.663 267.057 303.437C267.267 303.211 267.426 302.943 267.525 302.651C267.624 302.358 267.659 302.049 267.629 301.742V301.804Z" fill="#001A66"/>
</g>
<path opacity="0.2" d="M369.421 343.48H207.179V371.256H369.421V343.48Z" fill="black"/>
<g opacity="0.5">
<path d="M246.636 330.721H243.982L243.412 331.961H242.891L245.061 327.211H245.557L247.727 331.961H247.206L246.636 330.721ZM246.45 330.311L245.309 327.757L244.168 330.311H246.45Z" fill="black"/>
<path d="M248.422 326.951H248.905V331.985H248.422V326.951Z" fill="black"/>
<path d="M252.055 328.389V328.86H251.931C251.758 328.846 251.583 328.87 251.421 328.932C251.259 328.994 251.112 329.092 250.993 329.218C250.874 329.344 250.785 329.496 250.732 329.662C250.68 329.828 250.666 330.003 250.691 330.175V331.998H250.207V328.426H250.678V329.121C250.803 328.871 251.002 328.665 251.249 328.534C251.496 328.403 251.778 328.352 252.055 328.389Z" fill="black"/>
<path d="M255.998 330.349H252.96C252.969 330.522 253.013 330.693 253.089 330.849C253.165 331.006 253.271 331.146 253.401 331.261C253.532 331.377 253.684 331.465 253.849 331.521C254.013 331.577 254.188 331.6 254.361 331.589C254.567 331.596 254.773 331.558 254.963 331.479C255.153 331.4 255.325 331.281 255.465 331.13L255.725 331.44C255.469 331.709 255.139 331.896 254.776 331.978C254.414 332.06 254.035 332.033 253.688 331.901C253.341 331.768 253.041 331.536 252.825 331.234C252.61 330.931 252.488 330.571 252.476 330.2C252.465 329.964 252.501 329.729 252.584 329.508C252.667 329.287 252.794 329.085 252.958 328.915C253.122 328.746 253.319 328.611 253.537 328.521C253.755 328.43 253.989 328.386 254.225 328.389C254.461 328.384 254.695 328.427 254.913 328.517C255.132 328.607 255.329 328.742 255.492 328.912C255.655 329.082 255.781 329.285 255.862 329.506C255.943 329.728 255.976 329.964 255.961 330.2C255.961 330.2 255.998 330.299 255.998 330.349ZM253.01 329.989H255.49C255.49 329.66 255.359 329.345 255.126 329.112C254.894 328.88 254.579 328.749 254.25 328.749C253.921 328.749 253.605 328.88 253.373 329.112C253.14 329.345 253.01 329.66 253.01 329.989Z" fill="black"/>
<path d="M259.582 329.84V332.047H259.16V331.489C259.028 331.693 258.843 331.857 258.624 331.962C258.405 332.067 258.162 332.109 257.92 332.084C257.114 332.084 256.68 331.663 256.68 331.043C256.68 330.423 257.027 330.026 258.056 330.026H259.16V329.815C259.16 329.208 258.813 328.873 258.143 328.873C257.692 328.856 257.251 329.006 256.903 329.294L256.692 328.935C257.103 328.607 257.618 328.436 258.143 328.451C258.335 328.418 258.532 328.431 258.718 328.488C258.904 328.546 259.074 328.646 259.214 328.781C259.354 328.917 259.461 329.083 259.524 329.267C259.588 329.451 259.608 329.647 259.582 329.84ZM259.11 330.981V330.386H257.982C257.288 330.386 257.064 330.658 257.064 331.03C257.064 331.402 257.399 331.7 257.97 331.7C258.226 331.72 258.483 331.654 258.698 331.512C258.913 331.371 259.076 331.162 259.16 330.919L259.11 330.981Z" fill="black"/>
<path d="M264.12 326.951V331.985H263.661V331.279C263.52 331.515 263.318 331.709 263.076 331.84C262.833 331.971 262.56 332.034 262.285 332.023C261.829 331.985 261.404 331.777 261.094 331.441C260.784 331.104 260.612 330.663 260.612 330.206C260.612 329.748 260.784 329.308 261.094 328.971C261.404 328.635 261.829 328.427 262.285 328.389C262.553 328.382 262.819 328.443 263.058 328.567C263.297 328.69 263.5 328.872 263.649 329.096V326.951H264.12ZM263.649 330.2C263.637 329.94 263.549 329.69 263.396 329.48C263.243 329.27 263.031 329.11 262.788 329.019C262.545 328.928 262.28 328.91 262.027 328.968C261.774 329.026 261.543 329.157 261.364 329.345C261.185 329.533 261.064 329.769 261.018 330.025C260.972 330.28 261.001 330.544 261.103 330.783C261.205 331.022 261.375 331.225 261.592 331.369C261.808 331.512 262.062 331.588 262.322 331.589C262.507 331.6 262.692 331.571 262.864 331.505C263.037 331.439 263.194 331.337 263.324 331.205C263.454 331.074 263.555 330.916 263.62 330.743C263.684 330.569 263.711 330.384 263.698 330.2H263.649Z" fill="black"/>
<path d="M268.522 328.414L266.736 332.419C266.439 333.114 266.054 333.337 265.496 333.337C265.176 333.346 264.865 333.23 264.628 333.014L264.852 332.655C265.026 332.829 265.262 332.927 265.509 332.928C265.831 332.928 266.042 332.779 266.253 332.32L266.402 331.985L264.802 328.414H265.36L266.712 331.452L268.051 328.414H268.522Z" fill="black"/>
<path d="M273.68 329.84V332.047H273.222V331.489C273.09 331.693 272.905 331.857 272.686 331.962C272.467 332.067 272.223 332.109 271.982 332.084C271.176 332.084 270.742 331.663 270.742 331.043C270.742 330.423 271.089 330.026 272.118 330.026H273.246V329.815C273.246 329.208 272.912 328.873 272.242 328.873C271.791 328.856 271.349 329.006 271.002 329.294L270.779 328.935C271.195 328.607 271.713 328.436 272.242 328.451C272.434 328.418 272.631 328.431 272.817 328.488C273.003 328.546 273.173 328.646 273.313 328.781C273.453 328.917 273.559 329.083 273.623 329.267C273.687 329.451 273.707 329.647 273.68 329.84ZM273.197 330.981V330.386H272.081C271.386 330.386 271.163 330.658 271.163 331.03C271.163 331.402 271.498 331.7 272.068 331.7C272.316 331.71 272.56 331.639 272.763 331.498C272.967 331.357 273.119 331.154 273.197 330.919V330.981Z" fill="black"/>
<path d="M282.72 329.915V331.985H282.249V329.964C282.249 329.208 281.864 328.823 281.22 328.823C281.054 328.81 280.887 328.833 280.73 328.891C280.574 328.949 280.432 329.04 280.314 329.158C280.196 329.275 280.105 329.417 280.047 329.574C279.99 329.73 279.967 329.897 279.98 330.063V331.936H279.508V329.964C279.508 329.208 279.124 328.823 278.467 328.823C278.301 328.81 278.134 328.833 277.977 328.891C277.821 328.949 277.679 329.04 277.561 329.158C277.443 329.275 277.352 329.417 277.295 329.574C277.237 329.73 277.214 329.897 277.227 330.063V331.936H276.743V328.365H277.202V329.022C277.339 328.8 277.533 328.619 277.765 328.499C277.996 328.378 278.256 328.324 278.516 328.34C278.776 328.319 279.036 328.382 279.259 328.517C279.481 328.653 279.656 328.856 279.756 329.096C279.901 328.853 280.109 328.654 280.358 328.521C280.607 328.388 280.888 328.325 281.17 328.34C281.384 328.301 281.605 328.316 281.812 328.382C282.019 328.448 282.207 328.564 282.36 328.719C282.513 328.874 282.625 329.064 282.688 329.272C282.751 329.48 282.762 329.701 282.72 329.915Z" fill="black"/>
<path d="M287.11 330.349H284.121C284.147 330.699 284.309 331.026 284.574 331.258C284.838 331.49 285.184 331.609 285.535 331.589C285.739 331.596 285.943 331.559 286.131 331.48C286.32 331.401 286.489 331.281 286.626 331.13L286.899 331.44C286.725 331.63 286.512 331.78 286.274 331.881C286.037 331.981 285.78 332.03 285.522 332.023C285.277 332.038 285.03 332.002 284.799 331.917C284.568 331.832 284.358 331.699 284.181 331.527C284.005 331.355 283.866 331.148 283.775 330.92C283.683 330.691 283.641 330.446 283.65 330.2C283.65 329.739 283.833 329.298 284.158 328.972C284.484 328.647 284.926 328.464 285.386 328.464C285.846 328.464 286.288 328.647 286.614 328.972C286.939 329.298 287.122 329.739 287.122 330.2C287.122 330.2 287.11 330.299 287.11 330.349ZM284.121 329.989H286.663C286.663 329.652 286.529 329.329 286.291 329.09C286.053 328.852 285.729 328.718 285.392 328.718C285.055 328.718 284.732 328.852 284.494 329.09C284.255 329.329 284.121 329.652 284.121 329.989Z" fill="black"/>
<path d="M294.004 329.915V331.985H293.52V329.964C293.52 329.208 293.148 328.823 292.504 328.823C292.337 328.808 292.169 328.83 292.012 328.887C291.854 328.944 291.711 329.034 291.593 329.153C291.475 329.271 291.384 329.414 291.327 329.571C291.27 329.729 291.248 329.897 291.264 330.063V331.936H290.78V329.964C290.78 329.208 290.408 328.823 289.751 328.823C289.584 328.808 289.416 328.83 289.259 328.887C289.101 328.944 288.959 329.034 288.84 329.153C288.722 329.271 288.631 329.414 288.574 329.571C288.517 329.729 288.496 329.897 288.511 330.063V331.936H288.027V328.365H288.486V329.022C288.622 328.799 288.816 328.617 289.048 328.497C289.28 328.377 289.54 328.322 289.8 328.34C290.06 328.319 290.32 328.382 290.543 328.517C290.765 328.653 290.94 328.856 291.04 329.096C291.185 328.853 291.393 328.654 291.642 328.521C291.891 328.388 292.172 328.325 292.454 328.34C292.668 328.301 292.889 328.316 293.096 328.382C293.303 328.448 293.491 328.564 293.644 328.719C293.797 328.874 293.909 329.064 293.972 329.272C294.035 329.48 294.046 329.701 294.004 329.915Z" fill="black"/>
<path d="M298.939 330.2C298.951 330.438 298.914 330.676 298.83 330.9C298.745 331.123 298.616 331.326 298.45 331.497C298.283 331.668 298.083 331.803 297.863 331.894C297.642 331.984 297.405 332.028 297.166 332.023C296.891 332.034 296.617 331.971 296.375 331.84C296.133 331.709 295.93 331.515 295.79 331.279V331.985H295.318V326.951H295.802V329.096C295.95 328.872 296.153 328.689 296.392 328.565C296.631 328.441 296.897 328.381 297.166 328.389C297.404 328.382 297.641 328.424 297.862 328.513C298.083 328.602 298.283 328.736 298.449 328.906C298.616 329.076 298.745 329.279 298.83 329.502C298.914 329.724 298.951 329.962 298.939 330.2ZM298.456 330.2C298.443 329.94 298.355 329.69 298.202 329.48C298.049 329.27 297.838 329.11 297.595 329.019C297.352 328.928 297.087 328.91 296.834 328.968C296.581 329.026 296.35 329.157 296.171 329.345C295.991 329.533 295.871 329.769 295.825 330.025C295.778 330.28 295.808 330.544 295.91 330.783C296.012 331.022 296.182 331.225 296.398 331.369C296.615 331.512 296.869 331.588 297.129 331.589C297.309 331.592 297.489 331.559 297.656 331.489C297.823 331.42 297.973 331.317 298.098 331.186C298.223 331.056 298.319 330.9 298.38 330.731C298.442 330.561 298.468 330.38 298.456 330.2Z" fill="black"/>
<path d="M303.044 330.349H300.08C300.089 330.522 300.133 330.693 300.209 330.849C300.285 331.006 300.391 331.146 300.521 331.261C300.652 331.377 300.804 331.465 300.968 331.521C301.133 331.577 301.308 331.6 301.481 331.589C301.687 331.588 301.891 331.543 302.077 331.455C302.264 331.367 302.429 331.239 302.56 331.08L302.833 331.39C302.577 331.659 302.246 331.847 301.884 331.929C301.522 332.011 301.143 331.984 300.796 331.851C300.449 331.719 300.148 331.487 299.933 331.184C299.717 330.881 299.596 330.522 299.584 330.15C299.572 329.914 299.609 329.679 299.691 329.458C299.774 329.237 299.902 329.035 300.066 328.866C300.229 328.696 300.426 328.562 300.644 328.471C300.862 328.381 301.096 328.336 301.332 328.34C301.568 328.334 301.802 328.377 302.019 328.467C302.237 328.558 302.433 328.692 302.596 328.863C302.758 329.033 302.883 329.236 302.962 329.458C303.041 329.679 303.073 329.915 303.056 330.15L303.044 330.349ZM300.055 329.989H302.535C302.535 329.66 302.405 329.345 302.172 329.112C301.939 328.88 301.624 328.749 301.295 328.749C300.966 328.749 300.651 328.88 300.418 329.112C300.186 329.345 300.055 329.66 300.055 329.989Z" fill="black"/>
<path d="M305.834 328.389V328.861H305.722C305.549 328.846 305.375 328.87 305.212 328.932C305.05 328.994 304.904 329.092 304.784 329.218C304.665 329.345 304.576 329.496 304.524 329.662C304.471 329.828 304.457 330.003 304.482 330.175V331.998H303.998V328.427H304.457V329.121C304.583 328.872 304.783 328.668 305.029 328.537C305.276 328.406 305.557 328.354 305.834 328.389Z" fill="black"/>
<path d="M308.958 328.451C308.958 327.955 308.562 327.621 307.867 327.621C307.623 327.607 307.379 327.649 307.153 327.743C306.928 327.838 306.727 327.982 306.565 328.166L306.206 327.893C306.417 327.655 306.68 327.467 306.974 327.345C307.268 327.222 307.586 327.168 307.904 327.187C308.859 327.187 309.467 327.645 309.467 328.427C309.467 329.58 308.227 329.667 308.227 330.609H307.718C307.718 329.443 308.958 329.332 308.958 328.451ZM307.619 331.663C307.635 331.581 307.678 331.506 307.743 331.453C307.808 331.399 307.889 331.37 307.973 331.37C308.056 331.37 308.138 331.399 308.202 331.453C308.267 331.506 308.31 331.581 308.326 331.663C308.336 331.715 308.334 331.768 308.321 331.82C308.307 331.871 308.283 331.918 308.249 331.959C308.216 332 308.173 332.032 308.125 332.055C308.078 332.077 308.025 332.089 307.973 332.089C307.92 332.089 307.867 332.077 307.82 332.055C307.772 332.032 307.73 332 307.696 331.959C307.662 331.918 307.638 331.871 307.624 331.82C307.611 331.768 307.609 331.715 307.619 331.663Z" fill="black"/>
<path d="M312.319 327.236H313.422V331.08H315.803V331.973H312.319V327.236Z" fill="black"/>
<path d="M316.051 330.162C316.026 329.761 316.123 329.361 316.328 329.015C316.533 328.668 316.837 328.392 317.201 328.221C317.566 328.049 317.973 327.991 318.37 328.054C318.768 328.117 319.137 328.298 319.431 328.574C319.724 328.849 319.928 329.206 320.016 329.599C320.104 329.991 320.072 330.401 319.925 330.776C319.777 331.15 319.52 331.471 319.188 331.698C318.855 331.925 318.462 332.046 318.06 332.047C317.802 332.064 317.544 332.028 317.301 331.941C317.057 331.854 316.835 331.718 316.646 331.541C316.458 331.364 316.308 331.151 316.206 330.914C316.103 330.676 316.051 330.421 316.051 330.162ZM318.99 330.162C318.976 329.982 318.909 329.81 318.798 329.668C318.688 329.525 318.538 329.417 318.367 329.358C318.197 329.299 318.012 329.291 317.837 329.335C317.662 329.379 317.503 329.472 317.381 329.605C317.258 329.738 317.176 329.903 317.146 330.081C317.116 330.259 317.138 330.442 317.21 330.608C317.282 330.773 317.401 330.915 317.552 331.014C317.703 331.113 317.879 331.166 318.06 331.167C318.189 331.169 318.317 331.144 318.436 331.094C318.555 331.043 318.662 330.968 318.75 330.873C318.838 330.778 318.904 330.666 318.946 330.543C318.987 330.421 319.002 330.291 318.99 330.162Z" fill="black"/>
<path d="M324.545 328.327V331.378C324.579 331.652 324.549 331.93 324.457 332.191C324.365 332.451 324.214 332.687 324.016 332.879C323.818 333.071 323.578 333.215 323.314 333.299C323.051 333.382 322.772 333.404 322.499 333.362C321.861 333.386 321.232 333.208 320.701 332.853L321.123 332.097C321.485 332.356 321.918 332.499 322.363 332.506C323.107 332.506 323.442 332.171 323.442 331.514V331.353C323.293 331.507 323.114 331.628 322.915 331.707C322.716 331.786 322.502 331.822 322.288 331.812C322.044 331.832 321.798 331.802 321.566 331.722C321.334 331.643 321.121 331.516 320.94 331.35C320.759 331.184 320.615 330.982 320.517 330.757C320.418 330.533 320.367 330.29 320.367 330.045C320.367 329.799 320.418 329.557 320.517 329.332C320.615 329.107 320.759 328.906 320.94 328.739C321.121 328.573 321.334 328.447 321.566 328.367C321.798 328.288 322.044 328.257 322.288 328.278C322.522 328.259 322.756 328.297 322.972 328.387C323.188 328.478 323.378 328.619 323.528 328.798V328.327H324.545ZM323.504 330.051C323.508 329.927 323.485 329.803 323.438 329.688C323.391 329.573 323.32 329.469 323.229 329.384C323.139 329.298 323.032 329.233 322.915 329.192C322.797 329.151 322.673 329.135 322.549 329.146C322.422 329.131 322.293 329.143 322.171 329.181C322.049 329.22 321.937 329.283 321.842 329.368C321.746 329.453 321.67 329.557 321.617 329.674C321.565 329.791 321.538 329.917 321.538 330.045C321.538 330.172 321.565 330.299 321.617 330.415C321.67 330.532 321.746 330.636 321.842 330.721C321.937 330.806 322.049 330.87 322.171 330.908C322.293 330.946 322.422 330.959 322.549 330.944C322.672 330.954 322.795 330.939 322.912 330.898C323.028 330.858 323.135 330.794 323.225 330.709C323.315 330.625 323.386 330.523 323.434 330.41C323.482 330.296 323.506 330.174 323.504 330.051Z" fill="black"/>
<path d="M327.36 327.236C327.361 327.153 327.38 327.071 327.414 326.995C327.449 326.92 327.498 326.852 327.56 326.796C327.621 326.74 327.694 326.698 327.772 326.671C327.851 326.644 327.934 326.634 328.017 326.641C328.098 326.632 328.18 326.641 328.258 326.665C328.336 326.69 328.408 326.73 328.47 326.783C328.531 326.837 328.581 326.902 328.617 326.976C328.652 327.05 328.671 327.13 328.674 327.211C328.674 327.386 328.605 327.553 328.482 327.676C328.359 327.799 328.191 327.869 328.017 327.869C327.843 327.869 327.676 327.799 327.552 327.676C327.429 327.553 327.36 327.386 327.36 327.211V327.236ZM327.484 328.327H328.538V332.047H327.484V328.327Z" fill="black"/>
<path d="M333.238 329.84V331.936H332.184V330.014C332.184 329.419 331.911 329.146 331.44 329.146C330.968 329.146 330.559 329.456 330.559 330.125V331.936H329.505V328.216H330.522V328.65C330.682 328.485 330.875 328.356 331.089 328.273C331.303 328.189 331.533 328.153 331.762 328.166C331.976 328.155 332.19 328.193 332.388 328.276C332.585 328.36 332.762 328.487 332.903 328.647C333.045 328.808 333.149 328.999 333.207 329.206C333.265 329.412 333.275 329.629 333.238 329.84Z" fill="black"/>
</g>
<path d="M369.421 341.781H207.179V369.557H369.421V341.781Z" fill="#3366FF"/>
<path d="M267.344 359.985L265.36 357.12H264.765H262.409V360.009H261.045V350.499H264.765C267.245 350.499 268.72 351.739 268.72 353.822C268.752 354.481 268.565 355.133 268.188 355.676C267.811 356.218 267.266 356.621 266.637 356.823L268.894 360.009L267.344 359.985ZM267.344 353.785C267.344 352.421 266.439 351.652 264.69 351.652H262.384V355.93H264.69C266.402 355.942 267.307 355.149 267.307 353.797L267.344 353.785Z" fill="white"/>
<path d="M277.165 356.822H271.324C271.416 357.436 271.735 357.992 272.217 358.383C272.699 358.773 273.309 358.968 273.928 358.93C274.318 358.944 274.705 358.874 275.065 358.724C275.425 358.574 275.747 358.349 276.012 358.062L276.731 358.906C276.2 359.444 275.525 359.818 274.787 359.983C274.049 360.148 273.28 360.096 272.57 359.834C271.861 359.573 271.242 359.112 270.788 358.507C270.334 357.903 270.064 357.18 270.01 356.426C269.984 355.939 270.059 355.452 270.231 354.995C270.402 354.539 270.667 354.123 271.007 353.774C271.347 353.424 271.755 353.149 272.207 352.965C272.659 352.781 273.143 352.693 273.631 352.706C274.116 352.692 274.598 352.781 275.047 352.965C275.495 353.149 275.9 353.426 276.235 353.776C276.571 354.127 276.829 354.543 276.993 355C277.158 355.456 277.225 355.942 277.19 356.426C277.19 356.537 277.177 356.698 277.165 356.822ZM271.324 355.88H275.937C275.878 355.31 275.61 354.781 275.184 354.397C274.758 354.013 274.204 353.801 273.631 353.801C273.057 353.801 272.504 354.013 272.078 354.397C271.652 354.781 271.384 355.31 271.324 355.88Z" fill="white"/>
<path d="M285.894 352.793V358.993C285.894 361.535 284.592 362.713 282.174 362.713C280.941 362.766 279.727 362.389 278.74 361.646L279.36 360.642C280.153 361.258 281.133 361.586 282.137 361.572C283.836 361.572 284.617 360.791 284.617 359.154V358.583C284.296 358.952 283.897 359.243 283.448 359.436C283 359.629 282.514 359.719 282.026 359.699C281.102 359.699 280.215 359.332 279.562 358.679C278.908 358.025 278.541 357.139 278.541 356.215C278.541 355.291 278.908 354.405 279.562 353.751C280.215 353.098 281.102 352.731 282.026 352.731C282.536 352.715 283.043 352.819 283.506 353.034C283.969 353.25 284.375 353.57 284.692 353.971V352.855L285.894 352.793ZM284.654 356.203C284.682 355.707 284.56 355.215 284.304 354.79C284.049 354.364 283.672 354.025 283.222 353.816C282.772 353.608 282.269 353.539 281.78 353.618C281.29 353.698 280.835 353.923 280.475 354.264C280.114 354.604 279.864 355.046 279.757 355.53C279.65 356.014 279.69 356.52 279.873 356.981C280.056 357.442 280.373 357.838 280.784 358.117C281.194 358.396 281.678 358.545 282.174 358.546C282.492 358.565 282.81 358.518 283.108 358.408C283.406 358.298 283.679 358.128 283.908 357.908C284.137 357.688 284.319 357.423 284.441 357.129C284.563 356.836 284.623 356.52 284.617 356.203H284.654Z" fill="white"/>
<path d="M288.151 350.56C288.153 350.446 288.177 350.334 288.222 350.229C288.267 350.125 288.332 350.03 288.414 349.95C288.496 349.871 288.593 349.808 288.699 349.766C288.804 349.724 288.918 349.703 289.032 349.705C289.152 349.69 289.274 349.701 289.389 349.738C289.505 349.774 289.611 349.834 289.702 349.914C289.793 349.994 289.865 350.093 289.915 350.203C289.964 350.314 289.99 350.433 289.99 350.554C289.99 350.675 289.964 350.795 289.915 350.905C289.865 351.016 289.793 351.114 289.702 351.195C289.611 351.275 289.505 351.335 289.389 351.371C289.274 351.407 289.152 351.418 289.032 351.404C288.918 351.407 288.805 351.388 288.699 351.347C288.594 351.306 288.497 351.245 288.415 351.166C288.333 351.088 288.268 350.994 288.222 350.89C288.177 350.786 288.153 350.674 288.151 350.56ZM288.387 352.793H289.689V359.984H288.387V352.793Z" fill="white"/>
<path d="M291.264 359.228L291.809 358.199C292.548 358.679 293.409 358.937 294.289 358.943C295.529 358.943 296 358.571 296 357.963C296 356.351 291.45 357.753 291.45 354.876C291.45 353.636 292.603 352.718 294.45 352.718C295.365 352.704 296.268 352.93 297.067 353.375L296.509 354.405C295.89 354.015 295.169 353.817 294.438 353.834C293.297 353.834 292.739 354.256 292.739 354.826C292.739 356.525 297.302 355.136 297.302 357.939C297.302 359.179 296.062 360.071 294.19 360.071C293.153 360.087 292.134 359.793 291.264 359.228Z" fill="white"/>
<path d="M303.031 359.6C302.58 359.945 302.024 360.124 301.456 360.108C301.15 360.143 300.841 360.109 300.549 360.009C300.258 359.908 299.994 359.743 299.775 359.527C299.556 359.31 299.388 359.047 299.284 358.757C299.181 358.468 299.143 358.158 299.175 357.852V353.896H297.935V352.83H299.175V351.255H300.415V352.83H302.56V353.896H300.489V357.802C300.46 357.962 300.468 358.126 300.513 358.282C300.557 358.438 300.637 358.581 300.746 358.701C300.856 358.821 300.991 358.915 301.142 358.974C301.293 359.033 301.456 359.056 301.618 359.042C301.984 359.046 302.342 358.928 302.634 358.707L303.031 359.6Z" fill="white"/>
<path d="M310.843 356.822H305.04C305.132 357.438 305.452 357.997 305.937 358.387C306.422 358.778 307.035 358.972 307.657 358.93C308.044 358.945 308.43 358.875 308.788 358.725C309.145 358.575 309.466 358.349 309.727 358.062L310.447 358.906C309.917 359.446 309.243 359.821 308.506 359.987C307.768 360.152 306.998 360.101 306.289 359.839C305.58 359.576 304.962 359.115 304.509 358.509C304.057 357.904 303.789 357.18 303.738 356.426C303.712 355.939 303.788 355.452 303.959 354.995C304.131 354.539 304.395 354.123 304.735 353.774C305.075 353.424 305.483 353.149 305.935 352.965C306.387 352.781 306.871 352.693 307.359 352.706C307.843 352.694 308.325 352.784 308.772 352.969C309.22 353.154 309.624 353.43 309.959 353.78C310.294 354.13 310.552 354.547 310.717 355.002C310.882 355.457 310.951 355.942 310.918 356.426C310.905 356.56 310.88 356.693 310.843 356.822ZM305.04 355.88H309.665C309.594 355.317 309.319 354.8 308.894 354.425C308.468 354.05 307.92 353.843 307.353 353.843C306.785 353.843 306.237 354.05 305.812 354.425C305.386 354.8 305.112 355.317 305.04 355.88Z" fill="white"/>
<path d="M316.56 352.718V353.958H316.262C315.94 353.935 315.616 353.986 315.316 354.106C315.016 354.225 314.747 354.411 314.528 354.65C314.31 354.888 314.149 355.173 314.056 355.483C313.963 355.792 313.942 356.119 313.993 356.438V360.022H312.691V352.83H313.931V354.07C314.193 353.616 314.58 353.247 315.046 353.007C315.513 352.767 316.038 352.667 316.56 352.718Z" fill="white"/>
<g opacity="0.6">
<path d="M259.892 152.036L260.45 150.871C261.412 151.677 262.629 152.117 263.884 152.111C265.682 152.111 266.451 151.416 266.451 150.511C266.451 148.031 260.152 149.569 260.152 145.712C260.152 144.1 261.392 142.736 264.132 142.736C265.313 142.717 266.475 143.036 267.48 143.654L266.984 144.894C266.133 144.349 265.144 144.056 264.132 144.051C262.359 144.051 261.652 144.795 261.652 145.7C261.652 148.18 267.964 146.642 267.964 150.474C267.964 152.061 266.724 153.425 263.934 153.425C262.465 153.456 261.032 152.964 259.892 152.036Z" fill="#001A66"/>
<path d="M269.626 142.898C269.627 142.773 269.654 142.65 269.703 142.535C269.753 142.421 269.825 142.317 269.915 142.23C270.005 142.144 270.111 142.076 270.227 142.031C270.344 141.986 270.468 141.964 270.593 141.968C270.716 141.963 270.839 141.982 270.954 142.025C271.07 142.068 271.176 142.134 271.266 142.218C271.356 142.302 271.428 142.403 271.479 142.516C271.529 142.628 271.557 142.75 271.56 142.873C271.56 143.129 271.458 143.375 271.277 143.557C271.095 143.738 270.849 143.84 270.593 143.84C270.336 143.84 270.09 143.738 269.909 143.557C269.728 143.375 269.626 143.129 269.626 142.873V142.898ZM269.874 145.378H271.312V153.264H269.874V145.378Z" fill="#001A66"/>
<path d="M281.567 145.34V152.148C281.567 154.938 280.153 156.203 277.487 156.203C276.149 156.245 274.837 155.83 273.767 155.025L274.449 153.921C275.313 154.604 276.386 154.968 277.487 154.95C279.347 154.95 280.19 154.082 280.19 152.297V151.677C279.839 152.082 279.402 152.404 278.911 152.618C278.42 152.833 277.887 152.935 277.351 152.917C276.832 152.946 276.312 152.87 275.824 152.692C275.335 152.513 274.889 152.237 274.511 151.88C274.133 151.523 273.832 151.093 273.626 150.616C273.42 150.138 273.314 149.624 273.314 149.104C273.314 148.584 273.42 148.07 273.626 147.592C273.832 147.115 274.133 146.684 274.511 146.327C274.889 145.97 275.335 145.694 275.824 145.516C276.312 145.338 276.832 145.261 277.351 145.291C277.899 145.262 278.446 145.359 278.951 145.574C279.456 145.789 279.905 146.116 280.265 146.531V145.291L281.567 145.34ZM280.178 149.06C280.205 148.518 280.069 147.981 279.788 147.516C279.507 147.052 279.093 146.683 278.6 146.456C278.106 146.23 277.557 146.156 277.021 146.245C276.486 146.334 275.989 146.581 275.596 146.955C275.202 147.329 274.93 147.812 274.813 148.342C274.697 148.872 274.742 149.425 274.943 149.929C275.144 150.434 275.491 150.866 275.941 151.171C276.39 151.476 276.92 151.639 277.462 151.64C277.817 151.671 278.175 151.627 278.512 151.512C278.849 151.397 279.158 151.213 279.419 150.971C279.681 150.729 279.889 150.436 280.03 150.109C280.172 149.782 280.243 149.429 280.24 149.073L280.178 149.06Z" fill="#001A66"/>
<path d="M291.784 148.688V153.227H290.346V148.8C290.346 147.25 289.577 146.494 288.226 146.494C287.882 146.471 287.538 146.525 287.218 146.65C286.897 146.776 286.608 146.97 286.372 147.22C286.135 147.47 285.956 147.769 285.848 148.095C285.74 148.422 285.705 148.768 285.746 149.11V153.177H284.32V145.291H285.696V146.531C286.034 146.111 286.469 145.778 286.964 145.563C287.458 145.347 287.997 145.253 288.536 145.291C288.983 145.261 289.431 145.329 289.849 145.492C290.267 145.654 290.645 145.906 290.954 146.23C291.264 146.554 291.499 146.942 291.643 147.367C291.786 147.792 291.834 148.243 291.784 148.688Z" fill="#001A66"/>
<path d="M305.784 145.34V153.227H304.432V151.987C304.118 152.393 303.71 152.717 303.244 152.933C302.778 153.149 302.267 153.249 301.754 153.227C301.293 153.274 300.827 153.218 300.391 153.061C299.954 152.905 299.558 152.653 299.232 152.323C298.906 151.994 298.659 151.595 298.507 151.157C298.355 150.719 298.304 150.253 298.356 149.792V145.254H299.782V149.631C299.782 151.168 300.564 151.95 301.915 151.95C302.259 151.974 302.604 151.922 302.926 151.798C303.247 151.673 303.537 151.478 303.774 151.228C304.011 150.978 304.19 150.678 304.297 150.35C304.405 150.023 304.438 149.675 304.395 149.333V145.254L305.784 145.34Z" fill="#001A66"/>
<path d="M316.671 149.284C316.699 149.816 316.616 150.349 316.426 150.847C316.237 151.345 315.946 151.798 315.571 152.178C315.196 152.557 314.747 152.854 314.251 153.05C313.755 153.245 313.224 153.335 312.691 153.314C312.167 153.334 311.646 153.233 311.169 153.018C310.691 152.802 310.27 152.479 309.938 152.074V156.141H308.512V145.378H309.876V146.618C310.204 146.186 310.631 145.84 311.121 145.609C311.611 145.378 312.149 145.269 312.691 145.291C313.221 145.268 313.75 145.356 314.244 145.548C314.738 145.741 315.187 146.035 315.561 146.41C315.935 146.786 316.228 147.235 316.419 147.73C316.61 148.225 316.696 148.754 316.671 149.284ZM315.233 149.284C315.209 148.765 315.033 148.266 314.728 147.846C314.422 147.427 314 147.106 313.515 146.923C313.029 146.741 312.5 146.705 311.994 146.82C311.488 146.935 311.027 147.196 310.668 147.57C310.308 147.945 310.067 148.416 309.973 148.926C309.878 149.437 309.936 149.963 310.138 150.441C310.34 150.919 310.678 151.327 311.11 151.615C311.541 151.903 312.048 152.058 312.567 152.061C312.929 152.069 313.288 152.001 313.622 151.863C313.957 151.725 314.259 151.518 314.509 151.257C314.76 150.996 314.953 150.686 315.078 150.346C315.202 150.007 315.255 149.645 315.233 149.284Z" fill="#001A66"/>
</g>
<path d="M369.421 211.47H207.179V239.246H369.421V211.47Z" fill="white"/>
<g opacity="0.4">
<path d="M216.058 220.832H216.901V228.061H221.352V228.792H216.058V220.832Z" fill="#001A66"/>
<path d="M227.118 225.085V228.805H226.35V227.875C226.124 228.207 225.815 228.473 225.454 228.647C225.092 228.821 224.691 228.897 224.291 228.867C222.94 228.867 222.109 228.16 222.109 227.118C222.109 226.077 222.692 225.432 224.415 225.432H226.312V225.072C226.312 224.043 225.73 223.485 224.614 223.485C223.889 223.476 223.185 223.726 222.63 224.192L222.258 223.584C222.966 223.036 223.842 222.751 224.738 222.778C225.053 222.74 225.373 222.773 225.674 222.874C225.975 222.976 226.25 223.143 226.478 223.364C226.706 223.585 226.882 223.854 226.993 224.152C227.104 224.45 227.147 224.768 227.118 225.085ZM226.312 226.994V226.015H224.44C223.274 226.015 222.902 226.474 222.902 227.094C222.902 227.714 223.46 228.21 224.415 228.21C224.819 228.234 225.221 228.13 225.562 227.912C225.903 227.693 226.166 227.372 226.312 226.994Z" fill="#001A66"/>
<path d="M228.482 228.16L228.842 227.528C229.468 227.964 230.212 228.198 230.975 228.197C232.116 228.197 232.574 227.813 232.574 227.218C232.574 225.655 228.706 226.883 228.706 224.527C228.706 223.547 229.536 222.816 231.062 222.816C231.806 222.806 232.539 222.999 233.182 223.374L232.822 224.018C232.301 223.674 231.687 223.497 231.062 223.51C229.983 223.51 229.512 223.932 229.512 224.502C229.512 226.114 233.38 224.899 233.38 227.193C233.38 228.234 232.475 228.904 230.9 228.904C230.035 228.923 229.187 228.662 228.482 228.16Z" fill="#001A66"/>
<path d="M238.08 228.433C237.728 228.712 237.29 228.861 236.84 228.854C236.604 228.88 236.366 228.852 236.142 228.773C235.918 228.694 235.715 228.566 235.547 228.399C235.38 228.231 235.252 228.028 235.173 227.804C235.094 227.58 235.066 227.342 235.092 227.106V223.498H234.013V222.816H235.092V221.501H235.898V222.816H237.708V223.498H235.898V227.069C235.876 227.212 235.888 227.357 235.931 227.495C235.974 227.633 236.048 227.759 236.147 227.864C236.247 227.969 236.368 228.05 236.503 228.102C236.638 228.153 236.783 228.173 236.927 228.16C237.252 228.17 237.57 228.059 237.82 227.85L238.08 228.433Z" fill="#001A66"/>
<path d="M249.24 220.832V228.793H248.546L243.437 222.332V228.793H242.594V220.832H243.288L248.409 227.292V220.832H249.24Z" fill="#001A66"/>
<path d="M256.234 225.085V228.805H255.44V227.875C255.216 228.208 254.907 228.476 254.546 228.651C254.184 228.825 253.782 228.9 253.382 228.867C252.03 228.867 251.199 228.16 251.199 227.119C251.199 226.077 251.794 225.432 253.518 225.432H255.44V225.072C255.44 224.043 254.857 223.485 253.741 223.485C253.017 223.476 252.313 223.727 251.757 224.192L251.385 223.584C252.092 223.033 252.97 222.748 253.865 222.779C254.18 222.742 254.498 222.777 254.798 222.879C255.097 222.981 255.37 223.149 255.597 223.369C255.824 223.59 255.999 223.859 256.109 224.155C256.219 224.452 256.261 224.77 256.234 225.085ZM255.428 226.994V226.015H253.543C252.39 226.015 252.018 226.474 252.018 227.094C252.018 227.714 252.576 228.21 253.53 228.21C253.937 228.237 254.341 228.134 254.685 227.916C255.028 227.697 255.293 227.374 255.44 226.994H255.428Z" fill="#001A66"/>
<path d="M268.299 225.32V228.792H267.493V225.407C267.493 224.167 266.848 223.498 265.769 223.498C265.49 223.485 265.21 223.533 264.951 223.639C264.692 223.745 264.46 223.907 264.269 224.112C264.079 224.318 263.936 224.562 263.85 224.829C263.765 225.095 263.738 225.377 263.773 225.655V228.792H262.967V225.407C262.967 224.167 262.322 223.498 261.231 223.498C260.951 223.485 260.672 223.533 260.413 223.639C260.154 223.745 259.921 223.907 259.731 224.112C259.541 224.318 259.398 224.562 259.312 224.829C259.226 225.095 259.2 225.377 259.234 225.655V228.792H258.428V222.816H259.16V223.907C259.394 223.541 259.72 223.244 260.105 223.043C260.49 222.843 260.921 222.748 261.355 222.766C261.794 222.73 262.235 222.829 262.616 223.051C262.997 223.273 263.302 223.606 263.488 224.006C263.732 223.607 264.081 223.28 264.495 223.062C264.91 222.844 265.376 222.742 265.844 222.766C266.183 222.733 266.525 222.777 266.845 222.895C267.165 223.013 267.454 223.202 267.69 223.448C267.927 223.694 268.104 223.99 268.209 224.315C268.315 224.639 268.345 224.983 268.299 225.32Z" fill="#001A66"/>
<path d="M275.726 226.052H270.766C270.784 226.344 270.859 226.629 270.986 226.892C271.114 227.155 271.293 227.389 271.512 227.583C271.731 227.776 271.986 227.925 272.262 228.02C272.538 228.114 272.831 228.154 273.122 228.135C273.467 228.146 273.809 228.082 274.126 227.947C274.443 227.812 274.727 227.61 274.958 227.354L275.404 227.875C274.974 228.324 274.422 228.636 273.816 228.772C273.21 228.909 272.577 228.864 271.996 228.643C271.415 228.422 270.913 228.035 270.55 227.53C270.188 227.025 269.983 226.425 269.96 225.804C269.94 225.409 270.001 225.014 270.139 224.644C270.278 224.273 270.491 223.935 270.765 223.651C271.039 223.366 271.369 223.14 271.734 222.988C272.099 222.836 272.491 222.76 272.887 222.766C273.282 222.758 273.674 222.833 274.038 222.985C274.403 223.136 274.732 223.362 275.005 223.648C275.278 223.933 275.488 224.272 275.623 224.644C275.758 225.015 275.814 225.41 275.788 225.804C275.739 225.878 275.726 225.965 275.726 226.052ZM270.766 225.457H275.007C275.007 224.895 274.784 224.355 274.386 223.958C273.988 223.56 273.449 223.336 272.887 223.336C272.324 223.336 271.785 223.56 271.387 223.958C270.99 224.355 270.766 224.895 270.766 225.457Z" fill="#001A66"/>
</g>
<path d="M369.421 173.526H207.179V201.302H369.421V173.526Z" fill="white"/>
<g opacity="0.4">
<path d="M216.901 183.619V186.744H221.018V187.476H216.901V190.848H216.058V182.888H221.514V183.619H216.901Z" fill="#001A66"/>
<path d="M222.791 182.974C222.788 182.856 222.821 182.739 222.886 182.639C222.95 182.539 223.043 182.461 223.152 182.415C223.262 182.368 223.382 182.355 223.499 182.378C223.616 182.4 223.723 182.457 223.807 182.541C223.891 182.625 223.948 182.732 223.97 182.849C223.993 182.966 223.98 183.086 223.933 183.196C223.887 183.305 223.809 183.398 223.709 183.462C223.609 183.527 223.492 183.56 223.374 183.557C223.219 183.557 223.071 183.496 222.961 183.386C222.852 183.277 222.791 183.129 222.791 182.974ZM222.964 184.872H223.77V190.848H222.964V184.872Z" fill="#001A66"/>
<path d="M229.04 184.822V185.603H228.842C228.557 185.589 228.273 185.639 228.009 185.748C227.746 185.857 227.509 186.022 227.317 186.233C227.125 186.444 226.982 186.695 226.899 186.968C226.815 187.24 226.793 187.528 226.833 187.81V190.861H226.027V184.884H226.796V186C227.01 185.603 227.339 185.278 227.738 185.068C228.138 184.859 228.592 184.773 229.04 184.822Z" fill="#001A66"/>
<path d="M229.71 190.166L230.07 189.522C230.689 189.971 231.437 190.21 232.202 190.204C233.343 190.204 233.802 189.807 233.802 189.224C233.802 187.662 229.933 188.889 229.933 186.521C229.933 185.554 230.764 184.822 232.289 184.822C233.034 184.806 233.769 184.999 234.41 185.38L234.05 186.025C233.528 185.68 232.914 185.503 232.289 185.516C231.21 185.516 230.739 185.938 230.739 186.508C230.739 188.12 234.608 186.905 234.608 189.199C234.608 190.228 233.703 190.898 232.128 190.898C231.264 190.92 230.416 190.664 229.71 190.166Z" fill="#001A66"/>
<path d="M239.32 190.489C238.964 190.76 238.527 190.904 238.08 190.898C237.845 190.926 237.606 190.9 237.383 190.822C237.159 190.745 236.955 190.618 236.787 190.451C236.619 190.285 236.491 190.082 236.412 189.859C236.333 189.636 236.306 189.397 236.332 189.162V185.554H235.253V184.872H236.332V183.52H237.138V184.834H238.948V185.516H237.138V189.075C237.117 189.219 237.128 189.365 237.172 189.503C237.215 189.641 237.289 189.768 237.387 189.874C237.486 189.98 237.608 190.062 237.742 190.115C237.877 190.168 238.022 190.19 238.167 190.179C238.492 190.183 238.807 190.073 239.06 189.869L239.32 190.489Z" fill="#001A66"/>
<path d="M250.48 182.888V190.848H249.786L244.677 184.388V190.848H243.834V182.888H244.528L249.649 189.348V182.888H250.48Z" fill="#001A66"/>
<path d="M257.461 187.141V190.861H256.68V189.931C256.458 190.262 256.151 190.528 255.791 190.7C255.431 190.872 255.031 190.945 254.634 190.91C253.27 190.91 252.439 190.216 252.439 189.174C252.439 188.133 253.034 187.488 254.758 187.488H256.68V187.116C256.68 186.099 256.097 185.541 254.981 185.541C254.257 185.532 253.553 185.782 252.997 186.248L252.625 185.64C253.332 185.09 254.21 184.805 255.105 184.834C255.419 184.798 255.737 184.832 256.036 184.934C256.335 185.036 256.608 185.204 256.834 185.425C257.059 185.646 257.233 185.915 257.342 186.212C257.45 186.509 257.491 186.826 257.461 187.141ZM256.655 189.05V188.071H254.77C253.617 188.071 253.245 188.53 253.245 189.137C253.245 189.745 253.803 190.266 254.758 190.266C255.166 190.294 255.572 190.191 255.918 189.973C256.264 189.754 256.531 189.431 256.68 189.05H256.655Z" fill="#001A66"/>
<path d="M269.526 187.376V190.848H268.72V187.463C268.72 186.223 268.076 185.553 266.997 185.553C266.717 185.541 266.438 185.589 266.179 185.695C265.92 185.801 265.687 185.963 265.497 186.168C265.307 186.374 265.164 186.618 265.078 186.885C264.992 187.151 264.966 187.433 265 187.711V190.848H264.194V187.463C264.194 186.223 263.55 185.553 262.458 185.553C262.179 185.541 261.9 185.589 261.641 185.695C261.381 185.801 261.149 185.963 260.959 186.168C260.768 186.374 260.625 186.618 260.54 186.885C260.454 187.151 260.427 187.433 260.462 187.711V190.848H259.656V184.871H260.4V186C260.634 185.634 260.96 185.337 261.345 185.136C261.73 184.936 262.161 184.841 262.595 184.859C263.034 184.823 263.475 184.922 263.856 185.144C264.237 185.366 264.542 185.699 264.728 186.099C264.97 185.698 265.318 185.37 265.733 185.152C266.148 184.933 266.615 184.832 267.084 184.859C267.418 184.829 267.756 184.874 268.071 184.991C268.386 185.108 268.671 185.294 268.905 185.535C269.139 185.776 269.317 186.067 269.424 186.385C269.532 186.704 269.567 187.043 269.526 187.376Z" fill="#001A66"/>
<path d="M276.954 188.108H271.994C272.011 188.4 272.086 188.685 272.214 188.948C272.342 189.21 272.521 189.445 272.739 189.639C272.958 189.832 273.213 189.981 273.49 190.076C273.766 190.17 274.058 190.21 274.35 190.191C274.696 190.202 275.039 190.137 275.357 190C275.674 189.863 275.957 189.657 276.185 189.398L276.632 189.931C276.202 190.379 275.65 190.692 275.043 190.828C274.437 190.965 273.804 190.92 273.224 190.699C272.643 190.478 272.14 190.091 271.778 189.586C271.416 189.081 271.211 188.481 271.188 187.86C271.168 187.465 271.229 187.07 271.367 186.7C271.505 186.329 271.718 185.991 271.993 185.706C272.267 185.422 272.597 185.196 272.962 185.044C273.327 184.892 273.719 184.816 274.114 184.822C274.509 184.814 274.901 184.889 275.266 185.04C275.631 185.192 275.96 185.418 276.233 185.704C276.505 185.989 276.716 186.328 276.851 186.699C276.986 187.071 277.042 187.466 277.016 187.86C276.966 187.922 276.954 188.009 276.954 188.108ZM271.994 187.5H276.235C276.235 186.938 276.011 186.399 275.614 186.001C275.216 185.603 274.677 185.38 274.114 185.38C273.552 185.38 273.013 185.603 272.615 186.001C272.217 186.399 271.994 186.938 271.994 187.5Z" fill="#001A66"/>
</g>
<path d="M146.134 409.547H144.956C144.956 407.799 146.407 366.829 153.537 359.947C160.865 352.817 169.483 359.848 169.558 359.947L168.814 360.84C168.491 360.58 160.915 354.429 154.343 360.84C147.56 367.301 146.146 409.126 146.134 409.547Z" fill="#3366FF"/>
<path d="M145.539 417.769L144.373 417.657C144.373 417.161 148.986 367.908 131.142 347.423L132.023 346.654C150.201 367.524 145.588 417.273 145.539 417.769Z" fill="#3366FF"/>
<path d="M146.109 412.511C145.96 410.18 142.526 355.471 156.24 342.823L157.034 343.691C143.728 355.917 147.238 411.891 147.275 412.424L146.109 412.511Z" fill="#3366FF"/>
<path d="M144.373 412.474C144.373 412.102 143.952 375.274 134.193 369.731C133.363 369.184 132.414 368.844 131.426 368.741C130.437 368.637 129.439 368.773 128.514 369.136C122.797 371.504 119.759 382.416 119.722 382.528L118.594 382.218C118.718 381.747 121.818 370.649 128.067 368.057C129.156 367.62 130.334 367.451 131.502 367.565C132.669 367.68 133.792 368.074 134.776 368.714C145.105 374.629 145.539 410.874 145.551 412.461L144.373 412.474Z" fill="#3366FF"/>
<path d="M148.391 412.498C148.316 411.258 146.816 383.433 154.715 373.104C156.823 370.363 159.154 369.061 161.684 369.247C167.301 369.632 171.604 377.245 171.839 377.568L170.822 378.15C170.822 378.076 166.582 370.71 161.597 370.413C159.501 370.252 157.492 371.405 155.645 373.823C148.006 383.743 149.544 412.151 149.556 412.436L148.391 412.498Z" fill="#3366FF"/>
<path d="M146.816 416.355L145.65 416.268C145.65 415.599 150.61 349.159 142.426 338.074L143.369 337.379C151.826 348.812 147.027 413.602 146.816 416.355Z" fill="#3366FF"/>
<path d="M125.798 374.666C125.798 374.666 130.857 376.538 129.357 380.94C127.856 385.342 111.836 392.596 111.836 392.596C111.836 392.596 105.127 386.458 111.29 376.476C117.453 366.494 125.662 371.516 125.798 374.666Z" fill="#3366FF"/>
<path opacity="0.2" d="M125.798 374.666C125.798 374.666 130.857 376.538 129.357 380.94C127.856 385.342 111.836 392.596 111.836 392.596C111.836 392.596 105.127 386.458 111.29 376.476C117.453 366.494 125.662 371.516 125.798 374.666Z" fill="black"/>
<path d="M147.808 366.284C147.808 366.284 142.414 366.061 142.104 370.698C141.794 375.336 153.76 388.207 153.76 388.207C153.76 388.207 162.316 385.107 160.481 373.513C158.646 361.919 149.147 363.419 147.808 366.284Z" fill="#3366FF"/>
<path opacity="0.2" d="M147.808 366.284C147.808 366.284 142.414 366.061 142.104 370.698C141.794 375.336 153.76 388.207 153.76 388.207C153.76 388.207 162.316 385.107 160.481 373.513C158.646 361.919 149.147 363.419 147.808 366.284Z" fill="black"/>
<path d="M152.371 344.038C152.371 344.038 148.775 343.654 149.06 341.471C149.346 339.289 163.035 333.647 171.108 342.711C171.108 342.711 165.937 351.59 158.472 351.714C151.007 351.838 152.371 344.038 152.371 344.038Z" fill="#3366FF"/>
<path opacity="0.2" d="M152.371 344.038C152.371 344.038 148.775 343.654 149.06 341.471C149.346 339.289 163.035 333.647 171.108 342.711C171.108 342.711 165.937 351.59 158.472 351.714C151.007 351.838 152.371 344.038 152.371 344.038Z" fill="black"/>
<path d="M145.675 338.719C145.675 338.719 148.924 340.293 149.842 338.285C150.759 336.276 142.116 324.26 130.448 327.72C130.448 327.72 130.138 337.987 136.412 342.042C142.687 346.097 145.675 338.719 145.675 338.719Z" fill="#3366FF"/>
<path opacity="0.2" d="M145.675 338.719C145.675 338.719 148.924 340.293 149.842 338.285C150.759 336.276 142.116 324.26 130.448 327.72C130.448 327.72 130.138 337.987 136.412 342.042C142.687 346.097 145.675 338.719 145.675 338.719Z" fill="black"/>
<path d="M162.688 372.905C162.688 372.905 160.208 370.897 162.886 369.917C165.565 368.937 178.696 369.223 178.833 382.23C178.833 382.23 163.531 384.772 161.646 379.812C159.762 374.852 162.688 372.905 162.688 372.905Z" fill="#3366FF"/>
<path opacity="0.2" d="M162.688 372.905C162.688 372.905 160.208 370.897 162.886 369.917C165.565 368.937 178.696 369.223 178.833 382.23C178.833 382.23 163.531 384.772 161.646 379.812C159.762 374.852 162.688 372.905 162.688 372.905Z" fill="black"/>
<path d="M131.44 343.716C131.44 343.716 133.92 341.707 131.242 340.74C128.563 339.772 115.432 340.033 115.295 353.04C115.295 353.04 130.597 355.595 132.482 350.635C134.366 345.675 131.44 343.716 131.44 343.716Z" fill="#3366FF"/>
<path opacity="0.2" d="M131.44 343.716C131.44 343.716 133.92 341.707 131.242 340.74C128.563 339.772 115.432 340.033 115.295 353.04C115.295 353.04 130.597 355.595 132.482 350.635C134.366 345.675 131.44 343.716 131.44 343.716Z" fill="black"/>
<path d="M139.574 354.194C139.574 354.194 139.798 351.714 137.826 352.718C135.854 353.723 129.022 361.063 136.115 368.069C136.115 368.069 145.675 360.989 143.952 357.306C142.228 353.623 139.574 354.194 139.574 354.194Z" fill="#3366FF"/>
<path opacity="0.2" d="M139.574 354.194C139.574 354.194 139.798 351.714 137.826 352.718C135.854 353.723 129.022 361.063 136.115 368.069C136.115 368.069 145.675 360.989 143.952 357.306C142.228 353.623 139.574 354.194 139.574 354.194Z" fill="black"/>
<path d="M164.92 357.666C164.92 357.666 163.432 355.719 165.614 355.483C167.797 355.248 177.518 357.839 175.249 367.561C175.249 367.561 163.395 366.668 162.849 362.601C162.304 358.534 164.92 357.666 164.92 357.666Z" fill="#3366FF"/>
<path opacity="0.2" d="M164.92 357.666C164.92 357.666 163.432 355.719 165.614 355.483C167.797 355.248 177.518 357.839 175.249 367.561C175.249 367.561 163.395 366.668 162.849 362.601C162.304 358.534 164.92 357.666 164.92 357.666Z" fill="black"/>
<path d="M126.678 448.533H165.007L170.103 411.259H121.582L126.678 448.533Z" fill="#001A66"/>
<path opacity="0.2" d="M126.678 448.533H165.007L170.103 411.259H121.582L126.678 448.533Z" fill="white"/>
<path d="M174.914 408.233V411.779C174.914 412.917 174.462 414.009 173.658 414.813C172.853 415.618 171.762 416.07 170.624 416.07H120.59C119.452 416.07 118.361 415.618 117.556 414.813C116.752 414.009 116.3 412.917 116.3 411.779V408.233H174.914Z" fill="#001A66"/>
<path d="M494.289 54.9444H458.664C455.756 54.9444 452.968 56.0993 450.913 58.155C448.857 60.2107 447.702 62.9988 447.702 65.906V96.906C447.7 98.3465 447.983 99.7733 448.533 101.105C449.083 102.436 449.89 103.646 450.908 104.665C451.926 105.684 453.135 106.493 454.466 107.044C455.797 107.596 457.223 107.88 458.664 107.88H469.067L466.587 117.664L476.507 107.88H494.351C497.261 107.88 500.052 106.724 502.111 104.666C504.169 102.608 505.325 99.8165 505.325 96.906V65.906C505.325 64.4602 505.039 63.0287 504.483 61.6939C503.928 60.3591 503.114 59.1474 502.088 58.1285C501.062 57.1097 499.845 56.3038 498.506 55.7573C497.168 55.2109 495.734 54.9346 494.289 54.9444Z" fill="#3366FF"/>
<path opacity="0.7" d="M494.289 54.9444H458.664C455.756 54.9444 452.968 56.0993 450.913 58.155C448.857 60.2107 447.702 62.9988 447.702 65.906V96.906C447.7 98.3465 447.983 99.7733 448.533 101.105C449.083 102.436 449.89 103.646 450.908 104.665C451.926 105.684 453.135 106.493 454.466 107.044C455.797 107.596 457.223 107.88 458.664 107.88H469.067L466.587 117.664L476.507 107.88H494.351C497.261 107.88 500.052 106.724 502.111 104.666C504.169 102.608 505.325 99.8165 505.325 96.906V65.906C505.325 64.4602 505.039 63.0287 504.483 61.6939C503.928 60.3591 503.114 59.1474 502.088 58.1285C501.062 57.1097 499.845 56.3038 498.506 55.7573C497.168 55.2109 495.734 54.9346 494.289 54.9444Z" fill="white"/>
<path d="M476.482 95.1081C484.118 95.1081 490.308 88.918 490.308 81.2821C490.308 73.6462 484.118 67.4561 476.482 67.4561C468.846 67.4561 462.656 73.6462 462.656 81.2821C462.656 88.918 468.846 95.1081 476.482 95.1081Z" fill="white"/>
<path d="M476.482 63.5996C472.985 63.5996 469.566 64.6367 466.658 66.5796C463.751 68.5226 461.484 71.2842 460.146 74.5153C458.807 77.7463 458.457 81.3016 459.14 84.7317C459.822 88.1617 461.506 91.3124 463.979 93.7854C466.452 96.2583 469.602 97.9424 473.033 98.6247C476.463 99.3069 480.018 98.9568 483.249 97.6184C486.48 96.2801 489.242 94.0137 491.185 91.1058C493.128 88.198 494.165 84.7793 494.165 81.282C494.166 78.9595 493.71 76.6594 492.822 74.5133C491.934 72.3673 490.632 70.4173 488.989 68.775C487.347 67.1327 485.397 65.8303 483.251 64.9423C481.105 64.0542 478.805 63.598 476.482 63.5996ZM486.514 75.9996L475.862 88.5484C475.711 88.7297 475.521 88.875 475.307 88.9737C475.092 89.0724 474.858 89.122 474.622 89.1188C474.386 89.1202 474.153 89.0699 473.939 88.9713C473.725 88.8728 473.535 88.7284 473.382 88.5484L466.451 80.3768C466.304 80.2152 466.192 80.0258 466.12 79.8199C466.048 79.6139 466.019 79.3957 466.033 79.1781C466.048 78.9605 466.106 78.748 466.204 78.5534C466.303 78.3587 466.439 78.1859 466.606 78.0451C466.772 77.9044 466.966 77.7986 467.174 77.7341C467.382 77.6696 467.601 77.6478 467.818 77.6698C468.035 77.6918 468.246 77.7573 468.437 77.8624C468.628 77.9674 468.796 78.1099 468.931 78.2812L474.622 84.9896L484.034 73.904C484.317 73.5921 484.709 73.4021 485.13 73.3741C485.55 73.3462 485.964 73.4825 486.286 73.7542C486.607 74.026 486.811 74.412 486.853 74.8308C486.896 75.2497 486.774 75.6688 486.514 75.9996Z" fill="#3366FF"/>
<path d="M488.114 246.214C488.114 246.214 466.525 243.486 433.814 252.414C433.814 252.414 428.556 193.961 429.176 185.926C429.796 177.89 479.682 180.246 479.682 180.246C479.682 180.246 480.922 203.645 484.17 217.756C487.419 231.868 489.8 243.499 488.114 246.214Z" fill="#3366FF"/>
<path opacity="0.2" d="M488.114 246.214C488.114 246.214 466.525 243.486 433.814 252.414C433.814 252.414 428.556 193.961 429.176 185.926C429.796 177.89 479.682 180.246 479.682 180.246C479.682 180.246 480.922 203.645 484.17 217.756C487.419 231.868 489.8 243.499 488.114 246.214Z" fill="black"/>
<path d="M418.041 439.729L426.845 442.221L428.941 428.519L430.069 421.191L421.265 418.698L419.765 428.519L418.041 439.729Z" fill="#E4897B"/>
<path d="M468.658 440.448L477.735 441.651L477.822 428.519L477.884 420.36L468.794 419.17L468.732 428.519L468.658 440.448Z" fill="#E4897B"/>
<path opacity="0.2" d="M468.794 419.17L468.732 428.519H477.822L477.884 420.36L468.794 419.17Z" fill="black"/>
<path opacity="0.2" d="M419.765 428.519H428.941L430.069 421.191L421.265 418.698L419.765 428.519Z" fill="black"/>
<path d="M378.956 190.724L370.214 188.145L371.814 198.127C371.814 198.127 379.75 199.95 380.494 195.821L378.956 190.724Z" fill="#E4897B"/>
<path d="M361.485 190.464L365.775 198.574L371.814 198.127L370.214 188.145L361.485 190.464Z" fill="#E4897B"/>
<path d="M391.022 193.279L376.662 190.067L375.36 197.036L388.393 200.21L391.022 193.279Z" fill="#E4897B"/>
<path d="M434.459 186.979L433.616 187.984C431.805 190.104 427.416 195.225 422.84 199.64C419.12 203.236 415.4 206.373 412.92 207.006C405.889 208.816 380.333 201.289 380.333 201.289L382.974 190.923C382.974 190.923 406.782 194.085 408.63 194.085C410.031 194.085 424.514 173.104 428.023 171.38L434.459 186.979Z" fill="#3366FF"/>
<path opacity="0.2" d="M433.616 187.984C431.805 190.104 427.416 195.226 422.84 199.64C423.758 192.374 426.424 185.702 429.933 181.486C430.26 181.079 430.635 180.713 431.049 180.395L433.616 187.984Z" fill="black"/>
<path d="M418.153 438.352L428.147 438.092C428.327 438.086 428.504 438.142 428.648 438.25C428.793 438.358 428.896 438.512 428.941 438.687L431.049 446.735C431.099 446.927 431.106 447.129 431.067 447.324C431.029 447.52 430.948 447.704 430.828 447.864C430.709 448.023 430.556 448.154 430.379 448.246C430.203 448.338 430.008 448.39 429.809 448.396C426.2 448.396 420.98 448.396 416.454 448.483C411.147 448.632 407.774 448.371 401.574 448.483C397.854 448.582 396.614 444.837 398.201 444.453C405.306 442.692 409.956 443.039 416.008 439.071C416.646 438.646 417.387 438.398 418.153 438.352Z" fill="#001A66"/>
<path d="M417.285 439.642C415.822 439.964 413.218 440.398 412.176 439.543C412.024 439.417 411.905 439.257 411.827 439.076C411.749 438.895 411.716 438.698 411.73 438.501C411.729 438.383 411.76 438.267 411.819 438.165C411.877 438.062 411.962 437.977 412.064 437.918C413.168 437.261 416.9 439.034 417.334 439.233C417.372 439.253 417.404 439.284 417.426 439.321C417.448 439.358 417.459 439.4 417.458 439.444C417.456 439.491 417.438 439.537 417.407 439.573C417.375 439.609 417.332 439.633 417.285 439.642ZM412.325 438.266H412.25C412.209 438.289 412.175 438.324 412.151 438.365C412.127 438.406 412.114 438.453 412.114 438.501C412.104 438.629 412.124 438.758 412.174 438.877C412.223 438.995 412.301 439.1 412.399 439.183C412.982 439.667 414.495 439.716 416.504 439.32C415.053 438.712 413.032 438.005 412.35 438.266H412.325Z" fill="#3366FF"/>
<path d="M417.285 439.642H417.136C416.008 439.171 413.751 437.261 413.875 436.232C413.875 435.984 414.073 435.674 414.668 435.599C414.887 435.571 415.109 435.586 415.322 435.643C415.535 435.701 415.734 435.8 415.908 435.934C417.148 436.864 417.434 439.307 417.458 439.406C417.462 439.444 417.456 439.482 417.441 439.517C417.425 439.551 417.402 439.582 417.372 439.605L417.285 439.642ZM414.507 436.083C414.321 436.145 414.309 436.244 414.309 436.281C414.234 436.901 415.772 438.414 416.925 439.059C416.792 438.017 416.332 437.045 415.611 436.281C415.488 436.179 415.345 436.103 415.191 436.06C415.037 436.018 414.876 436.008 414.718 436.033C414.646 436.04 414.575 436.057 414.507 436.083Z" fill="#3366FF"/>
<path d="M469.018 438.352L479.012 438.092C479.194 438.086 479.372 438.141 479.519 438.249C479.665 438.357 479.771 438.512 479.818 438.687L481.914 446.735C481.966 446.928 481.975 447.13 481.938 447.326C481.9 447.523 481.819 447.708 481.699 447.868C481.58 448.029 481.425 448.159 481.248 448.251C481.07 448.342 480.874 448.392 480.674 448.396C477.065 448.396 471.845 448.396 467.306 448.483C462.012 448.632 458.626 448.372 452.426 448.483C448.706 448.582 447.466 444.838 449.054 444.453C456.159 442.692 460.796 443.04 466.848 439.072C467.493 438.642 468.243 438.393 469.018 438.352Z" fill="#001A66"/>
<path d="M468.162 439.642C466.699 439.964 464.082 440.398 463.053 439.543C462.901 439.417 462.782 439.257 462.704 439.076C462.626 438.895 462.593 438.698 462.607 438.501C462.606 438.383 462.637 438.267 462.696 438.165C462.755 438.062 462.839 437.977 462.942 437.918C464.033 437.261 467.778 439.034 468.199 439.233C468.24 439.249 468.275 439.279 468.297 439.317C468.32 439.355 468.329 439.4 468.323 439.444C468.32 439.489 468.303 439.533 468.274 439.568C468.245 439.604 468.206 439.629 468.162 439.642ZM463.202 438.266H463.128C463.087 438.289 463.053 438.324 463.031 438.365C463.009 438.407 463 438.454 463.004 438.501C462.991 438.63 463.011 438.759 463.06 438.878C463.11 438.997 463.189 439.102 463.289 439.183C463.872 439.667 465.372 439.716 467.393 439.32C465.918 438.712 463.896 438.005 463.214 438.266H463.202Z" fill="#3366FF"/>
<path d="M468.162 439.642H468.001C466.885 439.171 464.616 437.261 464.752 436.232C464.752 435.984 464.938 435.674 465.533 435.6C465.752 435.57 465.974 435.584 466.187 435.641C466.4 435.699 466.599 435.799 466.773 435.934C467.641 436.901 468.183 438.115 468.323 439.406C468.329 439.444 468.325 439.483 468.309 439.519C468.294 439.554 468.269 439.584 468.236 439.605L468.162 439.642ZM465.372 436.083C465.198 436.145 465.186 436.244 465.186 436.282C465.099 436.902 466.649 438.414 467.802 439.059C467.66 438.02 467.201 437.05 466.488 436.282C466.365 436.179 466.222 436.105 466.068 436.062C465.914 436.019 465.753 436.009 465.595 436.034L465.372 436.083Z" fill="#3366FF"/>
<path d="M487.382 240.882C492.193 261.727 483.935 425.717 483.935 425.717H467.989L461.169 289.056L436.059 425.717L419.009 424.477C430.169 318.606 440.002 255.403 440.002 255.403V247.417L487.382 240.882Z" fill="#001A66"/>
<path opacity="0.4" d="M419.009 424.477L436.059 425.717L455.824 318.134L461.169 289.056L467.989 425.717H483.935C483.935 425.717 492.193 261.727 487.382 240.882L439.977 247.417V255.403C439.977 255.403 430.156 318.606 419.009 424.477Z" fill="white"/>
<path d="M478.789 163.68C478.3 173.646 478.553 183.635 479.545 193.564C480.215 200.508 481.132 207.068 482.112 212.982C484.406 226.858 487.01 237.262 487.382 240.895L439.977 247.43C422.691 199.07 429.201 170.971 429.201 170.971C432.746 169.508 436.378 168.265 440.076 167.251C440.857 167.04 441.651 166.842 442.469 166.656C449.127 165.346 455.855 164.418 462.619 163.878C463.859 163.767 465.211 163.68 466.476 163.618C472.948 163.296 478.789 163.68 478.789 163.68Z" fill="#001A66"/>
<path d="M453.418 141.918C453.766 148.552 454.472 161.001 459.99 164.163C459.99 164.163 456.556 170.698 449.128 171.368C443.511 171.864 443.883 166.321 443.883 166.321C447.132 163.903 446.363 159.799 443.883 155.161L453.418 141.918Z" fill="#E4897B"/>
<path opacity="0.2" d="M449.525 147.324L443.92 155.161C444.51 156.233 445.008 157.353 445.408 158.509C448.012 157.468 451.001 153.549 450.567 150.71C450.431 149.527 450.078 148.379 449.525 147.324Z" fill="black"/>
<path d="M429.238 128.563C428.16 132.01 428.755 139.078 433.554 136.784C438.352 134.49 431.098 122.648 429.238 128.563Z" fill="#001A66"/>
<path d="M454.039 133.226C454.572 142.067 455.279 147.213 451.422 152.222C445.557 159.749 434.199 156.947 431.024 148.416C428.172 140.728 427.788 127.559 435.984 123.095C437.801 122.106 439.839 121.595 441.907 121.608C443.975 121.622 446.007 122.16 447.81 123.172C449.614 124.184 451.132 125.637 452.221 127.396C453.31 129.154 453.936 131.16 454.039 133.226Z" fill="#E4897B"/>
<path d="M447.838 128.414V118.494C447.838 118.494 458.354 117.713 457.882 123.095C463.71 125.984 460.958 135.048 453.133 139.487C448.843 136.053 449.339 127.794 449.339 127.794C448.88 128.03 448.359 128.228 447.838 128.414Z" fill="#001A66"/>
<path d="M458.316 140.12C458.114 141.202 457.697 142.232 457.09 143.149C456.483 144.067 455.698 144.854 454.782 145.464C452.302 147.089 450.157 145.092 450.07 142.302C449.996 139.822 451.174 135.904 454.026 135.408C454.65 135.311 455.288 135.37 455.884 135.579C456.479 135.789 457.013 136.143 457.438 136.61C457.863 137.077 458.166 137.642 458.319 138.255C458.473 138.867 458.472 139.508 458.316 140.12Z" fill="#E4897B"/>
<path d="M440.981 137.169C441.068 137.888 440.758 138.508 440.287 138.557C439.816 138.607 439.369 138.074 439.282 137.317C439.196 136.561 439.506 135.978 439.964 135.929C440.423 135.879 440.894 136.4 440.981 137.169Z" fill="#001A66"/>
<path d="M432.872 138.074C432.958 138.793 432.648 139.413 432.177 139.463C431.706 139.512 431.26 138.979 431.173 138.223C431.086 137.466 431.396 136.884 431.867 136.834C432.338 136.784 432.76 137.355 432.872 138.074Z" fill="#001A66"/>
<path d="M435.488 138.136C434.862 140.353 433.931 142.473 432.723 144.435C433.258 144.71 433.845 144.869 434.445 144.901C435.046 144.933 435.646 144.837 436.207 144.621L435.488 138.136Z" fill="#DE5753"/>
<path d="M440.386 146.928C440.08 147.006 439.77 147.064 439.456 147.101C439.4 147.101 439.347 147.079 439.307 147.039C439.268 147 439.245 146.946 439.245 146.89C439.245 146.834 439.268 146.781 439.307 146.741C439.347 146.702 439.4 146.68 439.456 146.68C440.347 146.599 441.206 146.31 441.964 145.836C442.722 145.362 443.358 144.716 443.821 143.952C443.832 143.926 443.847 143.904 443.867 143.885C443.887 143.866 443.91 143.852 443.936 143.843C443.961 143.833 443.989 143.829 444.016 143.831C444.043 143.833 444.07 143.84 444.094 143.852C444.119 143.864 444.142 143.881 444.161 143.902C444.18 143.923 444.194 143.947 444.204 143.974C444.213 144.001 444.217 144.029 444.215 144.057C444.213 144.085 444.206 144.112 444.193 144.138C443.787 144.842 443.239 145.454 442.584 145.934C441.928 146.415 441.18 146.753 440.386 146.928Z" fill="#001A66"/>
<path d="M443.164 134.28C443.089 134.297 443.01 134.295 442.936 134.273C442.863 134.251 442.796 134.211 442.742 134.156C442.383 133.762 441.937 133.458 441.44 133.266C440.943 133.074 440.408 133.001 439.878 133.052C439.823 133.065 439.766 133.066 439.711 133.056C439.656 133.045 439.603 133.024 439.557 132.992C439.51 132.961 439.471 132.92 439.441 132.873C439.41 132.826 439.39 132.773 439.382 132.717C439.371 132.663 439.371 132.606 439.382 132.552C439.393 132.497 439.415 132.446 439.446 132.399C439.477 132.353 439.517 132.314 439.563 132.283C439.61 132.253 439.662 132.232 439.716 132.221C440.386 132.141 441.065 132.223 441.696 132.458C442.328 132.693 442.895 133.075 443.35 133.573C443.39 133.611 443.422 133.657 443.444 133.708C443.466 133.76 443.478 133.815 443.478 133.87C443.478 133.926 443.466 133.981 443.444 134.032C443.422 134.084 443.39 134.13 443.35 134.168C443.297 134.218 443.233 134.257 443.164 134.28Z" fill="#001A66"/>
<path d="M429.04 135.681C428.96 135.711 428.872 135.711 428.792 135.681C428.687 135.644 428.601 135.568 428.552 135.468C428.503 135.368 428.496 135.253 428.532 135.148C428.736 134.509 429.093 133.93 429.57 133.459C430.047 132.989 430.631 132.64 431.272 132.444C431.381 132.416 431.496 132.433 431.592 132.49C431.689 132.547 431.759 132.64 431.787 132.748C431.815 132.857 431.798 132.972 431.741 133.068C431.684 133.165 431.591 133.235 431.483 133.263C430.976 133.419 430.515 133.698 430.141 134.074C429.767 134.45 429.491 134.912 429.338 135.42C429.314 135.485 429.274 135.543 429.222 135.589C429.17 135.634 429.108 135.666 429.04 135.681Z" fill="#001A66"/>
<path d="M452.501 132.085C452.501 132.085 446.301 129.816 443.474 126.22C443.474 126.22 437.844 127.695 436.691 129.94C436.165 129.489 435.824 128.859 435.735 128.172C435.646 127.485 435.814 126.79 436.207 126.22C436.207 126.22 431.991 127.112 431.16 129.94C430.475 129.613 429.913 129.076 429.556 128.406C429.199 127.737 429.066 126.97 429.176 126.22C429.176 126.22 427.304 126.926 426.696 129.94C426.696 129.94 422.046 120.243 437.41 117.465C436.248 117.071 435.029 116.865 433.802 116.858C433.802 116.858 444.528 112.53 453.022 116.486C461.516 120.441 460.04 128.104 452.501 132.085Z" fill="#001A66"/>
<path d="M491.04 249.24L476.16 251.224C476.16 251.224 470.022 208.332 467.319 194.482V164.92L475.094 162.874L481.12 164.92C482.773 170.867 484.044 176.914 484.927 183.024C485.658 187.662 486.316 192.622 486.898 197.644C487.704 204.488 488.374 211.457 488.944 217.98C489.837 228.507 490.432 237.82 490.755 243.511C490.941 247.082 491.04 249.24 491.04 249.24Z" fill="#3366FF"/>
<path d="M467.331 194.457C467.331 194.457 468.571 173.588 475.106 162.824C475.106 162.824 474.945 159.749 473.643 159.253C472.341 158.757 467.331 161.733 467.331 161.733C467.331 161.733 464.219 159.6 463.537 160.592C462.855 161.584 461.193 168.181 467.331 194.457Z" fill="#3366FF"/>
<path opacity="0.7" d="M467.331 194.457C467.331 194.457 468.571 173.588 475.106 162.824C475.106 162.824 474.945 159.749 473.643 159.253C472.341 158.757 467.331 161.733 467.331 161.733C467.331 161.733 464.219 159.6 463.537 160.592C462.855 161.584 461.193 168.181 467.331 194.457Z" fill="white"/>
<path d="M433.504 254.956L435.203 256.196C435.203 256.196 432.723 242.37 433.74 207.402C433.74 205.716 433.851 204.091 433.913 202.541C435.153 172.955 439.766 167.573 440.113 167.251L435.823 168.714L428.048 171.393C425.704 196.627 433.504 254.956 433.504 254.956Z" fill="#3366FF"/>
<path d="M434.174 197.445C434.174 197.445 429.883 177.159 431.16 170.165C432.438 163.171 437.013 166.284 437.013 166.284C437.013 166.284 441.217 162.886 442.469 166.631C442.469 166.631 436.691 170.698 434.174 197.445Z" fill="#3366FF"/>
<path opacity="0.7" d="M434.174 197.445C434.174 197.445 429.883 177.159 431.16 170.165C432.438 163.171 437.013 166.284 437.013 166.284C437.013 166.284 441.217 162.886 442.469 166.631C442.469 166.631 436.691 170.698 434.174 197.445Z" fill="white"/>
<path opacity="0.2" d="M486.874 197.594C480.525 194.035 479.682 184.747 479.682 184.747C480.066 184.599 482.422 183.793 484.902 182.974C485.634 187.612 486.291 192.572 486.874 197.594Z" fill="black"/>
<path opacity="0.2" d="M455.824 318.134L461.169 289.056L460.139 273.668C460.139 273.668 452.811 300.353 455.824 318.134Z" fill="black"/>
<path opacity="0.2" d="M490.73 243.461C486.737 243.189 483.29 242.928 483.29 242.928L482.534 226.697C483.778 225.918 485.272 225.643 486.712 225.928C487.694 223.335 488.437 220.658 488.932 217.93C489.8 228.457 490.408 237.782 490.73 243.461Z" fill="black"/>
<path d="M492.094 217.918L484.319 230.404L490.47 233.938L497.773 222.692L492.094 217.918Z" fill="#E4897B"/>
<path d="M480.785 164.722C486.018 165.292 508.264 195.821 509.243 205.022C510.223 214.222 496.174 230.107 496.174 230.107L486.799 224.589C486.799 224.589 496.322 209.944 496.818 205.989C497.314 202.033 479.396 186.05 479.396 186.05C478.042 182.367 477.296 178.489 477.189 174.567C476.941 167.846 480.785 164.722 480.785 164.722Z" fill="#3366FF"/>
<path d="M482.521 226.709C482.521 226.709 490.519 228.42 493.743 233.455C493.743 233.455 490.395 243.933 488.002 245.074C485.609 246.214 479.682 246.214 479.682 246.214C479.682 246.214 479.297 234.558 482.521 226.709Z" fill="#3366FF"/>
</svg>
